<svg xmlns="http://www.w3.org/2000/svg" width="82" height="68" viewBox="0 0 82 68" fill="none"> 
    <path d="M2 37.0549V5.55426C2 4.78292 2.92972 4.39344 3.47949 4.93448L13.9143 15.2033C14.0804 15.3667 14.1739 15.59 14.1739 15.8231V26.7861C14.1739 27.0192 14.0804 27.2425 13.9143 27.4059L3.47949 37.6747C2.92972 38.2158 2 37.8263 2 37.0549Z" fill="#289FBF" stroke="#289FBF" stroke-width="2.6087"/> 
    <path d="M76.7823 62.6089H53.304C51.8633 62.6089 50.6953 61.441 50.6953 60.0003V43.4785" stroke="#0C2E8A" stroke-width="10.4348" stroke-linecap="round"/> 
    <circle cx="50.6371" cy="40.8119" r="9.50725" fill="#289FBF"/> 
    <path fill-rule="evenodd" clip-rule="evenodd" d="M26.3477 0C22.986 0 20.2607 2.72522 20.2607 6.08696V35.6522C20.2607 39.0139 22.986 41.7391 26.3477 41.7391H75.9129C79.2747 41.7391 81.9999 39.0139 81.9999 35.6522V6.08696C81.9999 2.72522 79.2747 0 75.9129 0H26.3477ZM31.5652 15.6523C33.9665 15.6523 35.913 13.7057 35.913 11.3044C35.913 8.90319 33.9665 6.95661 31.5652 6.95661C29.164 6.95661 27.2174 8.90319 27.2174 11.3044C27.2174 13.7057 29.164 15.6523 31.5652 15.6523Z" fill="#0C2E8A"/> 
</svg>