<svg xmlns="http://www.w3.org/2000/svg" width="93" height="60" viewBox="0 0 93 60" fill="none">
<path fill-rule="evenodd" clip-rule="evenodd" d="M14.2643 15.9019V5.08851H60.6969V17.8098H65.7854V4.45244C65.7854 1.99343 63.792 0 61.333 0H13.6282C11.1692 0 9.17578 1.99343 9.17578 4.45245V15.9019H14.2643ZM22.5334 35.6195V40.7081H32.0742V45.7969H27.6224C27.2711 45.7969 26.9863 46.0816 26.9863 46.4329V50.2493C26.9863 50.6006 27.2711 50.8854 27.6224 50.8854H37.8V35.6195H22.5334Z" fill="#0C2E8A"/>
<mask id="path-2-inside-1_1306_332" fill="white">
<path fill-rule="evenodd" clip-rule="evenodd" d="M2.54425 18.4458C1.1391 18.4458 0 19.5849 0 20.9901V52.7932C0 54.1984 1.1391 55.3375 2.54426 55.3375H17.8098C19.2149 55.3375 20.354 54.1984 20.354 52.7932V20.9901C20.354 19.5849 19.2149 18.4458 17.8098 18.4458H2.54425ZM5.08756 22.2622C4.38498 22.2622 3.81543 22.8318 3.81543 23.5343V50.8851C3.81543 51.5876 4.38498 52.1572 5.08756 52.1572H15.2646C15.9671 52.1572 16.5367 51.5876 16.5367 50.8851V23.5343C16.5367 22.8318 15.9671 22.2622 15.2646 22.2622H5.08756Z"/>
</mask>
<path fill-rule="evenodd" clip-rule="evenodd" d="M2.54425 18.4458C1.1391 18.4458 0 19.5849 0 20.9901V52.7932C0 54.1984 1.1391 55.3375 2.54426 55.3375H17.8098C19.2149 55.3375 20.354 54.1984 20.354 52.7932V20.9901C20.354 19.5849 19.2149 18.4458 17.8098 18.4458H2.54425ZM5.08756 22.2622C4.38498 22.2622 3.81543 22.8318 3.81543 23.5343V50.8851C3.81543 51.5876 4.38498 52.1572 5.08756 52.1572H15.2646C15.9671 52.1572 16.5367 51.5876 16.5367 50.8851V23.5343C16.5367 22.8318 15.9671 22.2622 15.2646 22.2622H5.08756Z" fill="#289FBF"/>
<path d="M2.54425 20.9901V20.9901V15.9015C-0.266047 15.9015 -2.54425 18.1797 -2.54425 20.9901H2.54425ZM2.54425 52.7932V20.9901H-2.54425V52.7932H2.54425ZM2.54426 52.7932L2.54425 52.7932H-2.54425C-2.54425 55.6035 -0.266045 57.8817 2.54426 57.8817V52.7932ZM17.8098 52.7932H2.54426V57.8817H17.8098V52.7932ZM17.8098 52.7932L17.8098 52.7932V57.8817C20.6201 57.8817 22.8983 55.6035 22.8983 52.7932H17.8098ZM17.8098 20.9901V52.7932H22.8983V20.9901H17.8098ZM17.8098 20.9901H17.8098H22.8983C22.8983 18.1797 20.6201 15.9015 17.8098 15.9015V20.9901ZM2.54425 20.9901H17.8098V15.9015H2.54425V20.9901ZM6.35968 23.5343C6.35968 24.2369 5.79014 24.8065 5.08756 24.8065V19.718C2.97982 19.718 1.27118 21.4266 1.27118 23.5343H6.35968ZM6.35968 50.8851V23.5343H1.27118V50.8851H6.35968ZM5.08756 49.6129C5.79013 49.6129 6.35968 50.1825 6.35968 50.8851H1.27118C1.27118 52.9928 2.97984 54.7014 5.08756 54.7014V49.6129ZM15.2646 49.6129H5.08756V54.7014H15.2646V49.6129ZM13.9924 50.8851C13.9924 50.1825 14.562 49.6129 15.2646 49.6129V54.7014C17.3723 54.7014 19.081 52.9928 19.081 50.8851H13.9924ZM13.9924 23.5343V50.8851H19.081V23.5343H13.9924ZM15.2646 24.8065C14.562 24.8065 13.9924 24.2369 13.9924 23.5343H19.081C19.081 21.4266 17.3723 19.718 15.2646 19.718V24.8065ZM5.08756 24.8065H15.2646V19.718H5.08756V24.8065Z" fill="#289FBF" mask="url(#path-2-inside-1_1306_332)"/>
<circle cx="10.1767" cy="48.9766" r="1.90819" fill="#0C2E8A"/>
<rect x="37" y="55.3462" width="56" height="4.43564" fill="#0C2E8A"/>
<mask id="path-6-inside-2_1306_332" fill="white">
<rect x="40.4287" y="19.8613" width="49.3465" height="35.4851" rx="3.88119"/>
</mask>
<rect x="40.4287" y="19.8613" width="49.3465" height="35.4851" rx="3.88119" stroke="#289FBF" stroke-width="8.87129" mask="url(#path-6-inside-2_1306_332)"/>
<circle cx="65.4669" cy="55.1061" r="2.18079" fill="white"/>
<!-- Code injected by live-server -->

</svg>