<svg width="107" height="80" viewBox="0 0 107 80" fill="none" xmlns="http://www.w3.org/2000/svg">
<path fill-rule="evenodd" clip-rule="evenodd" d="M8 8V56H28H44V80H28V72V64H7C3.13401 64 0 60.866 0 57V7C0 3.13401 3.13401 0 7 0H44V8H8Z" fill="#0C2E8A"/>
<path fill-rule="evenodd" clip-rule="evenodd" d="M52 6.32814C52 2.83321 54.8332 0 58.3281 0H82.6719C85.7112 0 88.2501 2.14274 88.8604 5H79C77.3431 5 76 6.34315 76 8V20.974C76 21.7702 76.3164 22.5336 76.8796 23.0963L89 35.2057V73.6719C89 77.1668 86.1668 80 82.6719 80H58.3281C54.8332 80 52 77.1668 52 73.6719V6.32814ZM75.8594 71.4297C75.8594 73.8762 73.8762 75.8594 71.4297 75.8594C68.9832 75.8594 67 73.8762 67 71.4297C67 68.9832 68.9832 67 71.4297 67C73.8762 67 75.8594 68.9832 75.8594 71.4297Z" fill="#289FBF"/>
<path fill-rule="evenodd" clip-rule="evenodd" d="M97.0444 34.81L105.816 26.0358C106.272 25.5773 106.528 24.9569 106.528 24.3104C106.528 23.6638 106.272 23.0435 105.816 22.5849L92.1128 8.87888C91.5502 8.31615 90.787 8 89.9913 8H82C80.3431 8 79 9.34314 79 11V18.9941C79 19.7901 79.3163 20.5534 79.8794 21.1161L93.5822 34.81C93.8094 35.0375 94.0793 35.218 94.3763 35.3412C94.6733 35.4644 94.9917 35.5278 95.3133 35.5278C95.6348 35.5278 95.9532 35.4644 96.2503 35.3412C96.5473 35.218 96.8172 35.0375 97.0444 34.81ZM85.4707 17.0988C86.9224 17.0988 88.0993 15.9219 88.0993 14.4702C88.0993 13.0185 86.9224 11.8417 85.4707 11.8417C84.019 11.8417 82.8422 13.0185 82.8422 14.4702C82.8422 15.9219 84.019 17.0988 85.4707 17.0988Z" fill="#0C2E8A"/>
</svg>
