<svg width="109" height="86" viewBox="0 0 109 86" fill="none" xmlns="http://www.w3.org/2000/svg">
<path fill-rule="evenodd" clip-rule="evenodd" d="M99 40.9983V71C99 74.866 95.866 78 92 78H109V86H0V78H17C13.134 78 10 74.866 10 71V21C10 17.134 13.134 14 17 14H62.6324C62.2186 15.768 62 17.609 62 19.5C62 20.344 62.0435 21.178 62.1286 22H18V70H91V43.6881C93.8576 43.2377 96.5532 42.3128 99 40.9983Z" fill="#0C2E8A"/>
<path fill-rule="evenodd" clip-rule="evenodd" d="M81.6342 1C81.6342 0.447715 82.082 0 82.6342 0H87.6342H90.6342C91.1865 0 91.6342 0.447715 91.6342 1V5.79676C93.2962 6.34303 94.838 7.15422 96.2097 8.18039L100.499 5.70383C100.977 5.42769 101.589 5.59157 101.865 6.06986L106.134 13.4641C106.41 13.9423 106.247 14.5539 105.768 14.8301L102.114 16.9396C102.454 18.2362 102.634 19.597 102.634 21C102.634 21.7226 102.586 22.434 102.494 23.1313C102.554 23.152 102.614 23.179 102.672 23.2124L105.768 24.9999C106.247 25.2761 106.41 25.8876 106.134 26.3659L102.142 33.2801C101.866 33.7584 101.255 33.9223 100.776 33.6461L98.1365 32.122C96.3525 33.9666 94.1287 35.3833 91.6342 36.2032V39C91.6342 39.5523 91.1865 40 90.6342 40H86.6342H82.6342C82.082 40 81.6342 39.5523 81.6342 39V36.2032C79.1397 35.3833 76.916 33.9666 75.132 32.122L72.4922 33.6461C72.0139 33.9223 71.4023 33.7584 71.1261 33.2801L67.1342 26.3659C66.8581 25.8876 67.022 25.2761 67.5003 24.9999L70.5963 23.2124C70.6542 23.179 70.714 23.152 70.775 23.1313C70.6821 22.434 70.6342 21.7226 70.6342 21C70.6342 19.597 70.8148 18.2362 71.154 16.9396L67.5003 14.8301C67.022 14.5539 66.8581 13.9423 67.1342 13.4641L71.4033 6.06986C71.6794 5.59157 72.291 5.42769 72.7693 5.70383L77.0588 8.18039C78.4305 7.15422 79.9722 6.34303 81.6342 5.79676V1ZM86.6342 30C91.6048 30 95.6342 25.9706 95.6342 21C95.6342 16.0294 91.6048 12 86.6342 12C81.6637 12 77.6342 16.0294 77.6342 21C77.6342 25.9706 81.6637 30 86.6342 30Z" fill="#289FBF"/>
</svg>
