<svg width="248" height="267" viewBox="0 0 248 267" fill="none" xmlns="http://www.w3.org/2000/svg">
    <path fill-rule="evenodd" clip-rule="evenodd" d="M226.152 89.8923L153.907 51.4463V76.1055L131.848 64.8599V94.5799L225.876 142.008L226.152 89.8923Z" fill="#289FBF"/>
    <path d="M226.152 144.765V89.8926L132.124 139.802V192.193L226.152 144.765Z" fill="#2A2D7A"/>
    <path d="M115.028 39.707L21 89.8923L69.8065 116.915L115.028 92.9254V39.707Z" fill="#2A2D7A"/>
    <path d="M21 144.765V89.8926L115.028 139.802V192.193L21 144.765Z" fill="#289FBF"/>
    <path d="M157.769 19.6088L135.71 7.7207V33.4248L157.769 44.6703V19.6088Z" fill="#289FBF"/>
    <path d="M182.035 41.2514L167.145 33.0894V50.7369L182.035 58.4577V41.2514Z" fill="#289FBF"/>
    <path d="M180.38 7.45226L167.145 0V16.113L180.38 23.1624V7.45226Z" fill="#289FBF"/>
    <path d="M68.7524 256.977V257.806H66.6221V264.792H65.6018V257.806H63.4603V256.977H68.7524ZM77.2288 256.977V261.921C77.2288 262.616 77.3969 263.132 77.7333 263.468C78.0771 263.805 78.5518 263.973 79.1572 263.973C79.7552 263.973 80.2224 263.805 80.5587 263.468C80.9025 263.132 81.0745 262.616 81.0745 261.921V256.977H82.0948V261.91C82.0948 262.56 81.9639 263.11 81.7023 263.558C81.4407 263.999 81.0857 264.328 80.6372 264.545C80.1962 264.762 79.6991 264.87 79.146 264.87C78.5929 264.87 78.0921 264.762 77.6436 264.545C77.2026 264.328 76.8513 263.999 76.5897 263.558C76.3355 263.11 76.2085 262.56 76.2085 261.91V256.977H77.2288ZM101.709 264.87C101.193 264.87 100.73 264.78 100.319 264.601C99.9151 264.414 99.5974 264.16 99.3657 263.838C99.134 263.51 99.0144 263.132 99.0069 262.706H100.094C100.132 263.072 100.281 263.383 100.543 263.637C100.812 263.883 101.201 264.007 101.709 264.007C102.195 264.007 102.576 263.887 102.853 263.648C103.137 263.401 103.279 263.087 103.279 262.706C103.279 262.407 103.196 262.164 103.032 261.977C102.868 261.79 102.662 261.648 102.415 261.551C102.169 261.454 101.836 261.349 101.418 261.237C100.902 261.103 100.487 260.968 100.173 260.834C99.8665 260.699 99.6012 260.49 99.3769 260.206C99.1602 259.914 99.0518 259.526 99.0518 259.04C99.0518 258.614 99.1602 258.236 99.3769 257.907C99.5937 257.578 99.8964 257.324 100.285 257.145C100.681 256.966 101.133 256.876 101.642 256.876C102.374 256.876 102.972 257.059 103.436 257.425C103.907 257.792 104.172 258.277 104.232 258.883H103.111C103.073 258.584 102.916 258.322 102.64 258.098C102.363 257.866 101.997 257.75 101.541 257.75C101.115 257.75 100.767 257.863 100.498 258.087C100.229 258.304 100.094 258.61 100.094 259.006C100.094 259.29 100.173 259.522 100.33 259.701C100.494 259.881 100.692 260.019 100.924 260.116C101.163 260.206 101.496 260.31 101.922 260.43C102.438 260.572 102.853 260.714 103.167 260.856C103.481 260.991 103.75 261.204 103.974 261.495C104.198 261.779 104.31 262.168 104.31 262.661C104.31 263.042 104.209 263.401 104.007 263.738C103.806 264.074 103.507 264.347 103.111 264.556C102.714 264.765 102.247 264.87 101.709 264.87ZM115.577 264.87C114.852 264.87 114.191 264.702 113.593 264.365C112.995 264.022 112.52 263.547 112.169 262.942C111.825 262.329 111.653 261.641 111.653 260.879C111.653 260.116 111.825 259.432 112.169 258.827C112.52 258.214 112.995 257.739 113.593 257.403C114.191 257.059 114.852 256.887 115.577 256.887C116.31 256.887 116.975 257.059 117.573 257.403C118.171 257.739 118.642 258.21 118.986 258.816C119.33 259.421 119.501 260.109 119.501 260.879C119.501 261.648 119.33 262.336 118.986 262.942C118.642 263.547 118.171 264.022 117.573 264.365C116.975 264.702 116.31 264.87 115.577 264.87ZM115.577 263.984C116.123 263.984 116.612 263.857 117.046 263.603C117.487 263.349 117.831 262.986 118.078 262.515C118.332 262.045 118.459 261.499 118.459 260.879C118.459 260.251 118.332 259.705 118.078 259.242C117.831 258.771 117.491 258.408 117.057 258.154C116.624 257.9 116.13 257.773 115.577 257.773C115.024 257.773 114.531 257.9 114.097 258.154C113.664 258.408 113.32 258.771 113.066 259.242C112.819 259.705 112.696 260.251 112.696 260.879C112.696 261.499 112.819 262.045 113.066 262.515C113.32 262.986 113.664 263.349 114.097 263.603C114.538 263.857 115.032 263.984 115.577 263.984ZM128.091 263.962H130.827V264.792H127.071V256.977H128.091V263.962ZM139.131 256.977V261.921C139.131 262.616 139.299 263.132 139.636 263.468C139.979 263.805 140.454 263.973 141.059 263.973C141.657 263.973 142.125 263.805 142.461 263.468C142.805 263.132 142.977 262.616 142.977 261.921V256.977H143.997V261.91C143.997 262.56 143.866 263.11 143.605 263.558C143.343 263.999 142.988 264.328 142.539 264.545C142.098 264.762 141.601 264.87 141.048 264.87C140.495 264.87 139.994 264.762 139.546 264.545C139.105 264.328 138.754 263.999 138.492 263.558C138.238 263.11 138.111 262.56 138.111 261.91V256.977H139.131ZM151.54 260.879C151.54 260.116 151.712 259.432 152.056 258.827C152.4 258.214 152.867 257.735 153.458 257.392C154.056 257.048 154.717 256.876 155.442 256.876C156.294 256.876 157.038 257.081 157.673 257.493C158.309 257.904 158.772 258.487 159.064 259.242H157.842C157.625 258.771 157.311 258.408 156.9 258.154C156.496 257.9 156.01 257.773 155.442 257.773C154.897 257.773 154.407 257.9 153.973 258.154C153.54 258.408 153.2 258.771 152.953 259.242C152.707 259.705 152.583 260.251 152.583 260.879C152.583 261.499 152.707 262.045 152.953 262.515C153.2 262.979 153.54 263.338 153.973 263.592C154.407 263.846 154.897 263.973 155.442 263.973C156.01 263.973 156.496 263.85 156.9 263.603C157.311 263.349 157.625 262.986 157.842 262.515H159.064C158.772 263.263 158.309 263.842 157.673 264.253C157.038 264.657 156.294 264.859 155.442 264.859C154.717 264.859 154.056 264.691 153.458 264.354C152.867 264.01 152.4 263.536 152.056 262.93C151.712 262.325 151.54 261.641 151.54 260.879ZM167.825 256.977V264.792H166.805V256.977H167.825ZM179.33 264.87C178.605 264.87 177.943 264.702 177.345 264.365C176.747 264.022 176.273 263.547 175.921 262.942C175.578 262.329 175.406 261.641 175.406 260.879C175.406 260.116 175.578 259.432 175.921 258.827C176.273 258.214 176.747 257.739 177.345 257.403C177.943 257.059 178.605 256.887 179.33 256.887C180.062 256.887 180.728 257.059 181.326 257.403C181.924 257.739 182.395 258.21 182.738 258.816C183.082 259.421 183.254 260.109 183.254 260.879C183.254 261.648 183.082 262.336 182.738 262.942C182.395 263.547 181.924 264.022 181.326 264.365C180.728 264.702 180.062 264.87 179.33 264.87ZM179.33 263.984C179.876 263.984 180.365 263.857 180.799 263.603C181.24 263.349 181.584 262.986 181.83 262.515C182.084 262.045 182.211 261.499 182.211 260.879C182.211 260.251 182.084 259.705 181.83 259.242C181.584 258.771 181.243 258.408 180.81 258.154C180.376 257.9 179.883 257.773 179.33 257.773C178.777 257.773 178.283 257.9 177.85 258.154C177.416 258.408 177.073 258.771 176.818 259.242C176.572 259.705 176.448 260.251 176.448 260.879C176.448 261.499 176.572 262.045 176.818 262.515C177.073 262.986 177.416 263.349 177.85 263.603C178.291 263.857 178.784 263.984 179.33 263.984ZM180.451 255.284L178.063 256.562V255.8L180.451 254.398V255.284ZM196.968 264.792H195.948L191.844 258.569V264.792H190.824V256.966H191.844L195.948 263.177V256.966H196.968V264.792Z" fill="black"/>
    <path d="M18.0355 217.527V238H15.3625V228.718H4.93479V238H2.26178V217.527H4.93479V226.515H15.3625V217.527H18.0355ZM36.4053 229.335C36.4053 229.844 36.3759 230.382 36.3172 230.95H23.4515C23.5494 232.536 24.0879 233.78 25.067 234.681C26.0658 235.562 27.2701 236.003 28.68 236.003C29.8354 236.003 30.7949 235.738 31.5586 235.209C32.3419 234.661 32.8903 233.937 33.2036 233.036H36.0822C35.6514 234.583 34.7898 235.846 33.4973 236.825C32.2049 237.785 30.5991 238.264 28.68 238.264C27.1526 238.264 25.7818 237.922 24.5677 237.236C23.3732 236.551 22.4332 235.582 21.7478 234.328C21.0624 233.055 20.7197 231.587 20.7197 229.922C20.7197 228.258 21.0526 226.799 21.7184 225.546C22.3842 224.292 23.3144 223.333 24.5089 222.667C25.7231 221.982 27.1134 221.639 28.68 221.639C30.2074 221.639 31.5586 221.972 32.7336 222.638C33.9085 223.303 34.8093 224.224 35.436 225.399C36.0822 226.554 36.4053 227.866 36.4053 229.335ZM33.6442 228.777C33.6442 227.758 33.419 226.887 32.9686 226.162C32.5182 225.418 31.9013 224.86 31.118 224.488C30.3543 224.096 29.5025 223.901 28.5625 223.901C27.2113 223.901 26.056 224.331 25.0964 225.193C24.1565 226.055 23.6179 227.249 23.4809 228.777H33.6442ZM58.4097 221.609C59.663 221.609 60.7792 221.874 61.7583 222.403C62.7374 222.912 63.5109 223.685 64.0788 224.723C64.6467 225.761 64.9307 227.024 64.9307 228.512V238H62.287V228.894C62.287 227.288 61.8856 226.064 61.0827 225.222C60.2994 224.361 59.2321 223.93 57.881 223.93C56.4906 223.93 55.3842 224.38 54.5617 225.281C53.7393 226.162 53.328 227.445 53.328 229.129V238H50.6844V228.894C50.6844 227.288 50.2829 226.064 49.4801 225.222C48.6968 224.361 47.6295 223.93 46.2783 223.93C44.888 223.93 43.7816 224.38 42.9591 225.281C42.1366 226.162 41.7254 227.445 41.7254 229.129V238H39.0524V221.903H41.7254V224.224C42.2541 223.382 42.9591 222.735 43.8403 222.285C44.7411 221.835 45.73 221.609 46.8071 221.609C48.1582 221.609 49.3528 221.913 50.3906 222.52C51.4285 223.127 52.202 224.018 52.7112 225.193C53.1616 224.057 53.9057 223.176 54.9436 222.549C55.9815 221.923 57.1368 221.609 58.4097 221.609ZM67.4354 229.893C67.4354 228.248 67.7684 226.809 68.4342 225.575C69.1 224.322 70.0105 223.352 71.1659 222.667C72.3409 221.982 73.6431 221.639 75.0726 221.639C76.4826 221.639 77.7065 221.942 78.7443 222.549C79.7822 223.156 80.5557 223.92 81.0649 224.841V221.903H83.7672V238H81.0649V235.004C80.5361 235.944 79.743 236.727 78.6856 237.354C77.6477 237.961 76.4336 238.264 75.0432 238.264C73.6137 238.264 72.3213 237.912 71.1659 237.207C70.0105 236.502 69.1 235.513 68.4342 234.24C67.7684 232.967 67.4354 231.518 67.4354 229.893ZM81.0649 229.922C81.0649 228.708 80.8201 227.651 80.3305 226.75C79.841 225.849 79.1752 225.164 78.3331 224.694C77.5106 224.204 76.6001 223.959 75.6013 223.959C74.6026 223.959 73.6921 224.194 72.8696 224.664C72.0471 225.134 71.3911 225.82 70.9016 226.72C70.412 227.621 70.1672 228.679 70.1672 229.893C70.1672 231.127 70.412 232.204 70.9016 233.124C71.3911 234.025 72.0471 234.72 72.8696 235.209C73.6921 235.679 74.6026 235.914 75.6013 235.914C76.6001 235.914 77.5106 235.679 78.3331 235.209C79.1752 234.72 79.841 234.025 80.3305 233.124C80.8201 232.204 81.0649 231.136 81.0649 229.922ZM95.8041 238L91.9855 232.008L88.3138 238H85.5232L90.7224 230.01L85.5232 221.903H88.5487L92.3673 227.866L96.0097 221.903H98.8002L93.6304 229.863L98.8296 238H95.8041ZM106.57 235.533L111.564 221.903H114.413L108.097 238H104.984L98.6685 221.903H101.547L106.57 235.533ZM117.542 219.289C117.033 219.289 116.603 219.113 116.25 218.76C115.898 218.408 115.721 217.977 115.721 217.468C115.721 216.959 115.898 216.528 116.25 216.175C116.603 215.823 117.033 215.647 117.542 215.647C118.032 215.647 118.443 215.823 118.776 216.175C119.129 216.528 119.305 216.959 119.305 217.468C119.305 217.977 119.129 218.408 118.776 218.76C118.443 219.113 118.032 219.289 117.542 219.289ZM118.835 221.903V238H116.162V221.903H118.835Z" fill="#2A2D7A"/>
    <path d="M152.355 239.225C149.718 239.225 147.553 238.603 145.859 237.36C144.165 236.095 143.254 234.294 143.126 231.957H149.847C149.911 232.751 150.147 233.329 150.554 233.694C150.961 234.058 151.487 234.241 152.13 234.241C152.709 234.241 153.18 234.101 153.545 233.822C153.931 233.522 154.124 233.115 154.124 232.6C154.124 231.936 153.813 231.421 153.191 231.057C152.569 230.692 151.562 230.285 150.168 229.835C148.689 229.342 147.488 228.87 146.566 228.42C145.666 227.948 144.873 227.273 144.187 226.394C143.522 225.493 143.19 224.325 143.19 222.889C143.19 221.431 143.554 220.187 144.283 219.158C145.012 218.108 146.02 217.314 147.306 216.779C148.592 216.243 150.05 215.975 151.68 215.975C154.317 215.975 156.418 216.596 157.983 217.84C159.569 219.062 160.416 220.788 160.523 223.017H153.674C153.652 222.331 153.438 221.817 153.03 221.474C152.644 221.131 152.141 220.959 151.519 220.959C151.047 220.959 150.661 221.098 150.361 221.377C150.061 221.656 149.911 222.053 149.911 222.567C149.911 222.996 150.072 223.371 150.393 223.693C150.736 223.993 151.154 224.261 151.648 224.497C152.141 224.711 152.87 224.99 153.834 225.333C155.271 225.826 156.45 226.319 157.372 226.812C158.315 227.284 159.119 227.959 159.784 228.838C160.47 229.695 160.813 230.789 160.813 232.118C160.813 233.469 160.47 234.68 159.784 235.752C159.119 236.824 158.144 237.671 156.857 238.293C155.592 238.914 154.092 239.225 152.355 239.225ZM182.17 239.225C180.047 239.225 178.096 238.732 176.317 237.746C174.537 236.738 173.122 235.355 172.072 233.597C171.043 231.818 170.528 229.813 170.528 227.584C170.528 225.354 171.043 223.36 172.072 221.602C173.122 219.823 174.537 218.44 176.317 217.454C178.096 216.468 180.047 215.975 182.17 215.975C184.314 215.975 186.265 216.468 188.022 217.454C189.802 218.44 191.206 219.823 192.235 221.602C193.264 223.36 193.779 225.354 193.779 227.584C193.779 229.813 193.264 231.818 192.235 233.597C191.206 235.355 189.802 236.738 188.022 237.746C186.243 238.732 184.292 239.225 182.17 239.225ZM182.17 233.372C183.778 233.372 185.042 232.847 185.964 231.797C186.908 230.746 187.379 229.342 187.379 227.584C187.379 225.783 186.908 224.368 185.964 223.339C185.042 222.288 183.778 221.763 182.17 221.763C180.54 221.763 179.265 222.288 178.343 223.339C177.421 224.368 176.96 225.783 176.96 227.584C176.96 229.363 177.421 230.778 178.343 231.829C179.265 232.858 180.54 233.372 182.17 233.372ZM219.541 216.328V221.345H210.473V225.333H217.162V230.124H210.473V239H204.17V216.328H219.541ZM246.829 216.328V221.345H240.783V239H234.48V221.345H228.499V216.328H246.829Z" fill="#289FBF"/>
    <rect x="129.548" y="210" width="3.39132" height="35.2697" fill="#289FBF"/>
    <rect x="129.548" y="227.635" width="3.39132" height="17.6349" fill="#2A2D7A"/>
</svg>
