<svg width="359" height="275" viewBox="0 0 359 275" fill="none" xmlns="http://www.w3.org/2000/svg">
<path d="M0 0H359V239H0V0Z" fill="#E7F2FF"/>
<path d="M123.823 266.165C116.031 260.682 100.627 249.751 101.339 249.884L142.021 221.713L172.129 236.215L123.823 266.165Z" fill="#1A83FF" fill-opacity="0.4"/>
<path d="M252.457 244.181C239.486 251.843 205.145 271.801 200.035 274.732C199.734 274.904 199.38 274.898 199.076 274.731L115.717 228.832C115.04 228.46 115.023 227.494 115.685 227.098L164.971 197.607C165.269 197.429 165.638 197.418 165.945 197.577L252.395 242.443C253.091 242.805 253.133 243.782 252.457 244.181Z" fill="#25253E" stroke="black" stroke-width="0.111304"/>
<path d="M165.951 182.373L121.764 207.599L192.998 248.606L237.631 222.658L165.951 182.373Z" fill="#5CA2F5"/>
<path d="M259.837 164.147L189.604 122.862L166.118 182.428L238.077 223.046L259.837 164.147Z" fill="#0075FF" fill-opacity="0.4"/>
<path fill-rule="evenodd" clip-rule="evenodd" d="M122.6 222.999L157.877 202.52C158.073 202.407 158.18 202.186 158.149 201.961L152.024 158.437C150.181 143.357 147.56 134.669 143.08 134.334C132.142 133.517 130.261 150.049 128.938 161.678C128.852 162.438 128.768 163.177 128.684 163.889L121.768 222.453C121.714 222.908 122.203 223.229 122.6 222.999ZM135.662 202.725L146.959 196.279L141.672 154.995L135.662 202.725Z" fill="#1A83FF"/>
<path d="M165.163 91.7471L121.828 117.251C121.462 117.467 121.179 117.8 121.025 118.196L99.4194 173.72C99.193 174.301 99.2682 174.957 99.6203 175.473L120.274 205.707C120.832 206.523 121.925 206.773 122.782 206.278L164.222 182.363C164.585 182.153 164.869 181.828 165.028 181.439L188.547 123.814C188.79 123.221 188.715 122.545 188.349 122.019L167.676 92.2973C167.111 91.485 166.016 91.2452 165.163 91.7471Z" stroke="#2A8CFF" stroke-opacity="0.6" stroke-width="2.00348"/>
<path d="M143.973 141.992C142.324 141.037 140.213 141.599 139.258 143.248C138.303 144.897 138.865 147.008 140.514 147.963L143.973 141.992ZM140.514 147.963L218.204 192.971L221.664 186.999L143.973 141.992L140.514 147.963Z" fill="#292D7A"/>
<path d="M190.55 123.974L167.287 91.4131L239.301 132.476L260.95 164.759L190.55 123.974Z" fill="#0076FF" fill-opacity="0.5"/>
<ellipse cx="151.482" cy="171.65" rx="15.4713" ry="15.447" fill="#0059D0"/>
<ellipse cx="152.651" cy="170.483" rx="14.3026" ry="14.2802" fill="#1177FF"/>
<ellipse cx="155.699" cy="165.592" rx="8.24963" ry="7.50128" fill="white"/>
<path d="M152.416 165.821L153.063 164.702L158.431 161.898L159.397 162.455L158.501 164.005L157.929 163.675L154.538 165.455L154.508 165.508L158.5 167.809L157.842 168.949L152.416 165.821ZM154.963 168.866L155.844 167.342L156.157 166.861L158.878 162.156L160.212 162.925L156.323 169.65L154.963 168.866Z" fill="#25253E"/>
<ellipse cx="190.828" cy="193.374" rx="15.193" ry="15.1692" fill="#A9FFB2"/>
<g filter="url(#filter0_b_1337_312)">
<ellipse cx="188.602" cy="191.263" rx="11.52" ry="11.5019" fill="#E0FFE3"/>
</g>
<ellipse cx="189.492" cy="199.375" rx="8.06955" ry="8.0569" fill="white"/>
<path d="M188.429 204.086C187.911 203.948 187.475 203.729 187.121 203.43C186.769 203.132 186.519 202.784 186.372 202.386C186.225 201.988 186.205 201.571 186.311 201.136L187.85 201.548C187.789 201.843 187.848 202.112 188.027 202.353C188.205 202.595 188.451 202.757 188.764 202.841C189.013 202.908 189.247 202.911 189.467 202.853C189.691 202.792 189.882 202.677 190.043 202.508C190.207 202.337 190.323 202.122 190.393 201.863C190.463 201.599 190.47 201.352 190.411 201.122C190.355 200.892 190.244 200.695 190.079 200.531C189.913 200.366 189.705 200.249 189.454 200.179C189.235 200.12 189.009 200.108 188.777 200.143C188.547 200.178 188.354 200.259 188.197 200.385L186.855 199.754L188.272 195.893L192.859 197.12L192.511 198.417L189.232 197.54L188.533 199.367L188.577 199.379C188.759 199.229 188.999 199.128 189.298 199.077C189.598 199.026 189.912 199.045 190.242 199.133C190.694 199.254 191.068 199.468 191.365 199.775C191.663 200.083 191.864 200.449 191.969 200.875C192.076 201.299 192.063 201.751 191.931 202.232C191.798 202.738 191.56 203.156 191.218 203.486C190.879 203.814 190.467 204.034 189.984 204.145C189.505 204.255 188.986 204.235 188.429 204.086Z" fill="#25253E"/>
<ellipse cx="155.488" cy="195.542" rx="16.3609" ry="16.3353" fill="#AA3FFF"/>
<g filter="url(#filter1_b_1337_312)">
<ellipse cx="154.889" cy="193.388" rx="13.724" ry="13.7025" fill="#C882FF"/>
</g>
<circle cx="8.08422" cy="8.08422" r="8.08422" transform="matrix(0.707661 -0.706552 0.707661 0.706552 141.764 190.63)" fill="white"/>
<path d="M153.022 194.688L152.591 187.016L152.562 186.966L149.062 188.984L148.339 187.732L153.424 184.801L154.158 186.07L154.603 193.776L153.022 194.688Z" fill="#25253E"/>
<ellipse cx="174.021" cy="209.045" rx="15.193" ry="15.1692" fill="#FF2828"/>
<g filter="url(#filter2_b_1337_312)">
<ellipse cx="173.465" cy="207.044" rx="12.7443" ry="12.7243" fill="#FF8282"/>
</g>
<circle cx="7.50715" cy="7.50715" r="7.50715" transform="matrix(0.707661 -0.706552 0.707661 0.706552 161.277 204.483)" fill="white"/>
<path d="M170.946 208.523L170.354 207.499L171.468 203.901C171.558 203.587 171.626 203.311 171.673 203.074C171.722 202.835 171.739 202.62 171.724 202.427C171.708 202.232 171.648 202.046 171.546 201.869C171.432 201.672 171.289 201.528 171.117 201.437C170.943 201.345 170.757 201.305 170.557 201.318C170.356 201.329 170.157 201.391 169.959 201.505C169.754 201.623 169.598 201.768 169.493 201.94C169.387 202.112 169.338 202.299 169.345 202.503C169.351 202.706 169.417 202.915 169.541 203.129L168.19 203.908C167.936 203.468 167.814 203.029 167.826 202.59C167.839 202.151 167.973 201.739 168.23 201.355C168.486 200.97 168.849 200.643 169.318 200.373C169.8 200.095 170.269 199.938 170.725 199.903C171.182 199.865 171.596 199.938 171.969 200.123C172.342 200.308 172.64 200.594 172.864 200.982C173.011 201.235 173.106 201.515 173.148 201.821C173.192 202.125 173.175 202.501 173.096 202.95C173.015 203.396 172.865 203.963 172.646 204.65L172.219 206.178L172.246 206.224L175.072 204.595L175.744 205.757L170.946 208.523Z" fill="#25253E"/>
<ellipse cx="215.649" cy="162.593" rx="15.193" ry="15.1692" fill="#1F93FF"/>
<g filter="url(#filter3_b_1337_312)">
<ellipse cx="214.48" cy="159.98" rx="12.1322" ry="12.1131" fill="#82C3FF"/>
</g>
<circle cx="7.50715" cy="7.50715" r="7.50715" transform="matrix(0.707661 -0.706552 0.707661 0.706552 202.904 158.031)" fill="white"/>
<path d="M210.571 160.893C210.29 160.609 210.064 160.289 209.894 159.934C209.726 159.58 209.643 159.195 209.645 158.779C209.647 158.362 209.759 157.921 209.983 157.455C210.208 156.99 210.573 156.507 211.075 156.005C211.539 155.546 212.004 155.186 212.471 154.927C212.942 154.668 213.402 154.509 213.851 154.45C214.302 154.393 214.731 154.435 215.137 154.576C215.545 154.716 215.919 154.955 216.259 155.295C216.626 155.661 216.878 156.056 217.016 156.479C217.155 156.901 217.188 157.318 217.115 157.731C217.043 158.145 216.874 158.521 216.608 158.859L215.462 157.715C215.608 157.479 215.665 157.235 215.631 156.983C215.597 156.731 215.474 156.5 215.263 156.289C214.905 155.931 214.477 155.815 213.98 155.94C213.484 156.067 212.967 156.396 212.428 156.927L212.466 156.964C212.711 156.884 212.961 156.856 213.215 156.881C213.473 156.906 213.721 156.978 213.961 157.096C214.204 157.213 214.426 157.372 214.627 157.573C214.952 157.898 215.165 158.264 215.266 158.671C215.368 159.077 215.359 159.486 215.239 159.899C215.119 160.312 214.887 160.689 214.544 161.032C214.171 161.404 213.753 161.648 213.29 161.764C212.828 161.882 212.36 161.869 211.886 161.724C211.415 161.579 210.977 161.302 210.571 160.893ZM211.478 159.977C211.657 160.155 211.86 160.272 212.087 160.328C212.315 160.383 212.542 160.378 212.769 160.312C212.997 160.245 213.201 160.121 213.384 159.939C213.566 159.757 213.69 159.553 213.754 159.328C213.821 159.105 213.827 158.88 213.773 158.655C213.719 158.43 213.603 158.228 213.424 158.05C213.29 157.916 213.141 157.816 212.976 157.752C212.813 157.69 212.644 157.66 212.469 157.664C212.295 157.669 212.125 157.707 211.959 157.776C211.794 157.844 211.645 157.944 211.513 158.076C211.336 158.253 211.214 158.455 211.148 158.682C211.084 158.911 211.077 159.139 211.129 159.366C211.183 159.594 211.299 159.798 211.478 159.977Z" fill="#25253E"/>
<ellipse cx="205.019" cy="213.212" rx="15.2487" ry="15.2248" fill="#6DECAF"/>
<ellipse cx="201.847" cy="212.378" rx="12.1878" ry="12.1687" fill="#A4FFD3"/>
<ellipse cx="208.08" cy="218.046" rx="8.40347" ry="8.39029" fill="#EEFFF7"/>
<path fill-rule="evenodd" clip-rule="evenodd" d="M202.729 224.515C209.048 224.064 214.035 218.802 214.035 212.378C214.035 212.293 214.034 212.207 214.032 212.123C212.51 210.598 210.406 209.655 208.08 209.655C203.439 209.655 199.677 213.412 199.677 218.046C199.677 220.649 200.864 222.976 202.729 224.515Z" fill="white"/>
<path d="M205.211 220.905L205.547 219.656L210.004 215.56L211.081 215.848L210.617 217.577L209.98 217.406L207.166 220.003L207.15 220.062L211.602 221.253L211.261 222.524L205.211 220.905ZM208.459 223.188L208.916 221.488L209.093 220.943L210.502 215.693L211.99 216.091L209.976 223.594L208.459 223.188Z" fill="#25253E"/>
<ellipse cx="172.574" cy="173.705" rx="15.193" ry="15.1692" fill="#289FBF"/>
<g filter="url(#filter4_b_1337_312)">
<ellipse cx="170.348" cy="171.594" rx="11.52" ry="11.5019" fill="#5CC7E3"/>
</g>
<ellipse cx="171.238" cy="179.706" rx="8.06955" ry="8.0569" fill="white"/>
<path d="M172.218 176.703C172.604 176.806 172.958 176.97 173.28 177.195C173.605 177.42 173.869 177.712 174.074 178.071C174.281 178.43 174.404 178.866 174.442 179.379C174.483 179.89 174.413 180.485 174.234 181.164C174.062 181.802 173.838 182.352 173.559 182.814C173.284 183.274 172.966 183.643 172.606 183.921C172.246 184.199 171.853 184.38 171.428 184.462C171.003 184.542 170.559 184.52 170.095 184.396C169.594 184.262 169.178 184.047 168.846 183.752C168.515 183.454 168.277 183.106 168.132 182.709C167.991 182.31 167.952 181.893 168.016 181.46L169.58 181.879C169.568 182.169 169.639 182.416 169.794 182.619C169.949 182.821 170.171 182.96 170.46 183.037C170.948 183.168 171.376 183.054 171.745 182.697C172.113 182.338 172.399 181.787 172.6 181.046L172.549 181.032C172.378 181.222 172.175 181.37 171.942 181.478C171.71 181.583 171.459 181.646 171.189 181.665C170.922 181.685 170.65 181.659 170.374 181.585C169.932 181.466 169.565 181.257 169.274 180.957C168.983 180.656 168.786 180.297 168.683 179.88C168.581 179.462 168.592 179.02 168.717 178.554C168.85 178.05 169.086 177.633 169.426 177.303C169.766 176.972 170.176 176.752 170.656 176.642C171.139 176.53 171.66 176.551 172.218 176.703ZM171.895 177.951C171.648 177.885 171.413 177.885 171.188 177.951C170.966 178.017 170.773 178.134 170.607 178.302C170.444 178.47 170.331 178.677 170.268 178.922C170.202 179.168 170.196 179.405 170.25 179.632C170.308 179.856 170.415 180.052 170.571 180.22C170.731 180.386 170.933 180.501 171.177 180.567C171.361 180.616 171.54 180.627 171.714 180.6C171.889 180.574 172.05 180.516 172.197 180.427C172.347 180.336 172.476 180.22 172.585 180.079C172.693 179.938 172.771 179.779 172.819 179.6C172.88 179.363 172.883 179.13 172.826 178.903C172.769 178.676 172.66 178.477 172.499 178.305C172.338 178.134 172.137 178.016 171.895 177.951Z" fill="#25253E"/>
<ellipse cx="183.705" cy="168.594" rx="15.193" ry="15.1692" fill="#FF2828"/>
<g filter="url(#filter5_b_1337_312)">
<ellipse cx="183.148" cy="166.593" rx="12.7443" ry="12.7243" fill="#FF8282"/>
</g>
<circle cx="7.50715" cy="7.50715" r="7.50715" transform="matrix(0.707661 -0.706552 0.707661 0.706552 170.96 164.032)" fill="white"/>
<path d="M179.791 159.851C180.137 159.652 180.504 159.518 180.891 159.45C181.28 159.38 181.674 159.399 182.073 159.508C182.474 159.616 182.869 159.837 183.259 160.173C183.65 160.505 184.022 160.975 184.376 161.582C184.707 162.154 184.937 162.701 185.067 163.224C185.198 163.744 185.235 164.229 185.177 164.68C185.119 165.131 184.969 165.535 184.727 165.894C184.483 166.25 184.153 166.549 183.737 166.789C183.288 167.047 182.841 167.19 182.397 167.215C181.952 167.238 181.538 167.16 181.154 166.982C180.771 166.799 180.449 166.533 180.187 166.182L181.591 165.373C181.787 165.586 182.012 165.71 182.266 165.745C182.518 165.778 182.774 165.719 183.032 165.57C183.471 165.318 183.694 164.935 183.701 164.423C183.707 163.909 183.519 163.318 183.137 162.651L183.091 162.678C183.104 162.933 183.066 163.181 182.977 163.422C182.888 163.66 182.754 163.882 182.577 164.086C182.402 164.289 182.191 164.462 181.944 164.604C181.547 164.833 181.14 164.944 180.721 164.937C180.302 164.93 179.909 164.816 179.54 164.593C179.172 164.37 178.867 164.05 178.625 163.632C178.362 163.182 178.234 162.721 178.241 162.247C178.247 161.773 178.381 161.328 178.643 160.912C178.905 160.492 179.288 160.138 179.791 159.851ZM180.447 160.962C180.225 161.09 180.059 161.256 179.946 161.461C179.836 161.664 179.782 161.884 179.784 162.119C179.788 162.353 179.854 162.579 179.983 162.797C180.111 163.018 180.274 163.189 180.473 163.311C180.673 163.429 180.887 163.493 181.117 163.5C181.347 163.505 181.572 163.444 181.791 163.318C181.955 163.223 182.09 163.104 182.195 162.962C182.299 162.82 182.372 162.666 182.413 162.499C182.455 162.329 182.465 162.156 182.441 161.979C182.418 161.803 182.361 161.635 182.268 161.475C182.143 161.264 181.98 161.098 181.779 160.978C181.578 160.857 181.36 160.793 181.125 160.786C180.89 160.778 180.664 160.837 180.447 160.962Z" fill="#25253E"/>
<path d="M98.0559 174.927L121.374 117.473L193.165 158.813L170.348 217.267L98.0559 174.927Z" fill="#0075FF" fill-opacity="0.6"/>
<path d="M166.452 91.3574L121.43 117.528L193.332 158.924L239.579 132.309L166.452 91.3574Z" fill="#2A8CFF" fill-opacity="0.5"/>
<path d="M237.177 133.198L193.842 158.702C193.476 158.918 193.193 159.251 193.038 159.647L171.433 215.171C171.207 215.753 171.282 216.409 171.634 216.924L192.287 247.158C192.845 247.975 193.939 248.224 194.795 247.729L236.235 223.814C236.599 223.604 236.883 223.279 237.041 222.891L260.561 165.266C260.803 164.672 260.729 163.996 260.363 163.47L239.69 133.749C239.125 132.936 238.03 132.696 237.177 133.198Z" fill="#2A8CFF" fill-opacity="0.2" stroke="#2A8CFF" stroke-width="2.00348"/>
<path fill-rule="evenodd" clip-rule="evenodd" d="M207.302 270.341L242.579 249.862C242.775 249.748 242.883 249.527 242.851 249.303L236.726 205.778C234.883 190.699 232.262 182.01 227.782 181.676C216.844 180.858 214.963 197.391 213.641 209.02C213.554 209.78 213.47 210.519 213.386 211.231L206.47 269.794C206.417 270.25 206.906 270.571 207.302 270.341ZM220.364 250.066L231.661 243.62L226.374 202.336L220.364 250.066Z" fill="#1A83FF"/>
<path d="M231.06 189.179C232.221 187.121 228.928 182.381 223.496 186.151C218.655 189.511 218.873 194.542 219.6 197.042C219.866 197.957 222.015 200.917 226.167 198.931C230.097 197.052 230.574 192.219 230.799 189.86C230.822 189.615 230.939 189.393 231.06 189.179Z" fill="#77B5FF"/>
<path d="M231.621 190.036C231.65 187.254 230.251 182.728 224.416 186.889C219.48 190.408 219.648 195.202 220.212 198.111C220.483 199.069 223.223 201.19 226.287 199.684C230.521 197.604 231.398 192.318 231.621 190.036Z" fill="#3391FF"/>
<path d="M149.812 211.101L98.8347 244.995L98.7234 255.164L149.812 225.158V211.101Z" fill="#59A5FF"/>
<path d="M122.431 259.497V269.498L98.8347 255.107V244.994L122.431 259.497Z" fill="#1A83FF"/>
<ellipse cx="128.442" cy="242.66" rx="15.4713" ry="15.447" fill="#0059D0"/>
<ellipse cx="129.611" cy="241.493" rx="14.3026" ry="14.2802" fill="#1177FF"/>
<ellipse cx="132.658" cy="236.604" rx="8.24963" ry="7.50128" fill="white"/>
<path d="M131.229 239.6C130.738 239.317 130.349 238.981 130.064 238.591C129.781 238.201 129.615 237.793 129.566 237.367C129.52 236.941 129.608 236.53 129.828 236.135L131.26 236.961C131.174 237.13 131.144 237.305 131.171 237.487C131.201 237.668 131.279 237.84 131.407 238.004C131.534 238.168 131.702 238.309 131.91 238.429C132.127 238.554 132.34 238.627 132.551 238.646C132.762 238.665 132.954 238.634 133.126 238.553C133.299 238.472 133.437 238.342 133.539 238.165C133.643 237.985 133.684 237.798 133.663 237.602C133.646 237.405 133.567 237.213 133.426 237.027C133.288 236.842 133.091 236.676 132.837 236.53L132.21 236.168L132.813 235.124L133.441 235.486C133.656 235.609 133.867 235.681 134.074 235.702C134.284 235.723 134.472 235.695 134.64 235.617C134.81 235.536 134.945 235.407 135.048 235.23C135.145 235.061 135.19 234.89 135.183 234.717C135.179 234.542 135.125 234.377 135.022 234.221C134.922 234.067 134.776 233.935 134.585 233.825C134.393 233.714 134.196 233.647 133.996 233.625C133.796 233.601 133.612 233.624 133.442 233.696C133.272 233.767 133.135 233.886 133.029 234.053L131.666 233.267C131.896 232.883 132.204 232.606 132.59 232.434C132.976 232.262 133.398 232.198 133.858 232.241C134.322 232.283 134.783 232.437 135.243 232.702C135.708 232.97 136.065 233.289 136.316 233.658C136.567 234.027 136.706 234.411 136.733 234.809C136.763 235.206 136.675 235.581 136.468 235.934C136.252 236.312 135.953 236.559 135.571 236.674C135.191 236.791 134.793 236.774 134.377 236.625L134.347 236.678C134.805 237.026 135.083 237.416 135.179 237.845C135.279 238.273 135.207 238.696 134.963 239.112C134.744 239.497 134.436 239.773 134.041 239.942C133.647 240.113 133.206 240.171 132.717 240.117C132.229 240.063 131.732 239.89 131.229 239.6Z" fill="#25253E"/>
<ellipse cx="153.652" cy="230.048" rx="15.193" ry="15.1692" fill="#AA3FFF"/>
<g filter="url(#filter6_b_1337_312)">
<ellipse cx="152.316" cy="228.826" rx="13.5235" ry="13.5023" fill="#C882FF"/>
</g>
<ellipse cx="153.652" cy="225.603" rx="7.51303" ry="7.50126" fill="white"/>
<path d="M155.899 222.716L153.886 230.219L152.299 229.794L153.908 223.797L153.864 223.785L151.857 224.403L152.234 222.996L154.408 222.317L155.899 222.716Z" fill="#25253E"/>
<path d="M173.52 225.437L122.431 259.664V269.499L173.52 239.494V225.437Z" fill="#59A5FF"/>
<path d="M192.664 248.94L171.071 217.435L98 174.872L120.261 207.433L192.664 248.94Z" fill="#0165FF" fill-opacity="0.75"/>
<path d="M106.398 116.634L84.0232 169.138L68.5342 162.558C91.4483 160.299 89 141.278 82 136.785C102.5 136.785 99.5 113.704 90.3744 109.827L106.398 116.634Z" fill="#FFBC00"/>
<path d="M257.97 112.822H242.48C240.065 112.822 238.162 114.881 238.352 117.288L242.075 164.489C242.245 166.643 244.042 168.304 246.202 168.304H253.689C255.831 168.304 257.619 166.671 257.813 164.538L262.093 117.337C262.313 114.912 260.404 112.822 257.97 112.822Z" fill="#FF6363"/>
<ellipse cx="250.657" cy="179.881" rx="7.65716" ry="7.64515" fill="#FF6363"/>
<defs>
<filter id="filter0_b_1337_312" x="176.637" y="179.316" width="23.9305" height="23.8943" filterUnits="userSpaceOnUse" color-interpolation-filters="sRGB">
<feFlood flood-opacity="0" result="BackgroundImageFix"/>
<feGaussianBlur in="BackgroundImageFix" stdDeviation="0.222608"/>
<feComposite in2="SourceAlpha" operator="in" result="effect1_backgroundBlur_1337_312"/>
<feBlend mode="normal" in="SourceGraphic" in2="effect1_backgroundBlur_1337_312" result="shape"/>
</filter>
<filter id="filter1_b_1337_312" x="140.686" y="179.206" width="28.4069" height="28.3642" filterUnits="userSpaceOnUse" color-interpolation-filters="sRGB">
<feFlood flood-opacity="0" result="BackgroundImageFix"/>
<feGaussianBlur in="BackgroundImageFix" stdDeviation="0.23972"/>
<feComposite in2="SourceAlpha" operator="in" result="effect1_backgroundBlur_1337_312"/>
<feBlend mode="normal" in="SourceGraphic" in2="effect1_backgroundBlur_1337_312" result="shape"/>
</filter>
<filter id="filter2_b_1337_312" x="160.275" y="193.874" width="26.3792" height="26.3387" filterUnits="userSpaceOnUse" color-interpolation-filters="sRGB">
<feFlood flood-opacity="0" result="BackgroundImageFix"/>
<feGaussianBlur in="BackgroundImageFix" stdDeviation="0.222608"/>
<feComposite in2="SourceAlpha" operator="in" result="effect1_backgroundBlur_1337_312"/>
<feBlend mode="normal" in="SourceGraphic" in2="effect1_backgroundBlur_1337_312" result="shape"/>
</filter>
<filter id="filter3_b_1337_312" x="201.903" y="147.422" width="25.1548" height="25.117" filterUnits="userSpaceOnUse" color-interpolation-filters="sRGB">
<feFlood flood-opacity="0" result="BackgroundImageFix"/>
<feGaussianBlur in="BackgroundImageFix" stdDeviation="0.222608"/>
<feComposite in2="SourceAlpha" operator="in" result="effect1_backgroundBlur_1337_312"/>
<feBlend mode="normal" in="SourceGraphic" in2="effect1_backgroundBlur_1337_312" result="shape"/>
</filter>
<filter id="filter4_b_1337_312" x="158.383" y="159.647" width="23.9305" height="23.8943" filterUnits="userSpaceOnUse" color-interpolation-filters="sRGB">
<feFlood flood-opacity="0" result="BackgroundImageFix"/>
<feGaussianBlur in="BackgroundImageFix" stdDeviation="0.222608"/>
<feComposite in2="SourceAlpha" operator="in" result="effect1_backgroundBlur_1337_312"/>
<feBlend mode="normal" in="SourceGraphic" in2="effect1_backgroundBlur_1337_312" result="shape"/>
</filter>
<filter id="filter5_b_1337_312" x="169.959" y="153.423" width="26.3792" height="26.3387" filterUnits="userSpaceOnUse" color-interpolation-filters="sRGB">
<feFlood flood-opacity="0" result="BackgroundImageFix"/>
<feGaussianBlur in="BackgroundImageFix" stdDeviation="0.222608"/>
<feComposite in2="SourceAlpha" operator="in" result="effect1_backgroundBlur_1337_312"/>
<feBlend mode="normal" in="SourceGraphic" in2="effect1_backgroundBlur_1337_312" result="shape"/>
</filter>
<filter id="filter6_b_1337_312" x="138.348" y="214.878" width="27.9373" height="27.8953" filterUnits="userSpaceOnUse" color-interpolation-filters="sRGB">
<feFlood flood-opacity="0" result="BackgroundImageFix"/>
<feGaussianBlur in="BackgroundImageFix" stdDeviation="0.222608"/>
<feComposite in2="SourceAlpha" operator="in" result="effect1_backgroundBlur_1337_312"/>
<feBlend mode="normal" in="SourceGraphic" in2="effect1_backgroundBlur_1337_312" result="shape"/>
</filter>
</defs>
</svg>
