<svg width="359" height="275" viewBox="0 0 359 275" fill="none" xmlns="http://www.w3.org/2000/svg">
<path d="M0 0H359V238.702H0V0Z" fill="#E7F2FF"/>
<path d="M189.388 245.585L94 197.933L169.031 161.459L265 206.757L189.388 245.585Z" fill="#88B6EC"/>
<path d="M265 206.757L188.806 244.996V274.999L265 237.033V206.757Z" fill="#BFDDFF"/>
<path d="M251.365 220.892L207.589 242.438C207.247 242.606 207.03 242.954 207.03 243.335V258.789C207.03 259.528 207.805 260.012 208.469 259.687L252.245 238.295C252.588 238.128 252.806 237.779 252.806 237.397V221.789C252.806 221.049 252.029 220.565 251.365 220.892Z" stroke="#1F1735" stroke-width="2.40925"/>
<path d="M188.806 274.999V244.996L94 197.933V227.347L188.806 274.999Z" fill="#3994FF"/>
<path d="M193.459 237.349L187.061 240.29V235.473L193.459 232.643V237.349Z" fill="#25253E"/>
<path d="M102.143 197.451V193.228L187.061 235.464V240.291L102.143 197.451Z" fill="#1B1725"/>
<path d="M121.337 182.639L102.143 193.228L127.735 206.17L121.337 182.639Z" fill="#5F5F77"/>
<path d="M141.694 144.4L106.796 127.34L107.378 197.347L191.714 239.704V226.761L151.582 176.168L141.694 144.4Z" fill="#88B6EC"/>
<path d="M259.146 193.322L191.714 226.762V239.704L259.146 206.432V193.322Z" fill="#62A5FF"/>
<path d="M218.469 142.635L151.582 176.167L191.714 226.76L259.184 193.228L218.469 142.635Z" fill="#C9E2FF"/>
<path d="M141.694 144.4L106.796 127.339L176.01 92.042L208.582 110.867L218.469 142.635L151.582 176.168L141.694 144.4Z" fill="#E2EDFA"/>
<path d="M219.763 156.145L165.696 182.273C164.728 182.741 164.452 183.992 165.134 184.824L184.26 208.137C184.747 208.73 185.578 208.913 186.269 208.579L240.41 182.385C241.38 181.916 241.654 180.662 240.968 179.831L221.767 156.583C221.28 155.993 220.452 155.812 219.763 156.145Z" fill="#1B1725"/>
<path d="M218.473 159.462L167.301 184.466C166.344 184.934 166.068 186.168 166.734 186.999L184.112 208.661C184.6 209.269 185.445 209.456 186.144 209.111L237.791 183.615C238.758 183.137 239.021 181.878 238.325 181.054L220.473 159.883C219.982 159.301 219.158 159.127 218.473 159.462Z" fill="#25253E"/>
<path d="M203 114.862L145.858 143.474C145.47 143.669 145.28 144.117 145.411 144.532L153.596 170.472C153.76 170.991 154.349 171.241 154.836 170.997L211.978 142.385C212.367 142.19 212.557 141.742 212.426 141.327L204.241 115.387C204.077 114.868 203.487 114.618 203 114.862Z" fill="#1B1725"/>
<path d="M166.123 134.986L149.837 143.222C158.678 154.518 158.561 164.793 157.398 168.519L173.102 160.283C175.429 152.282 169.419 140.085 166.123 134.986Z" fill="white"/>
<path d="M171.357 145.575C172.753 158.753 159.143 151.654 152.745 147.34C160.306 161.459 157.398 167.93 157.398 168.519L173.684 160.282C175.08 156.517 172.714 148.909 171.357 145.575Z" fill="#E2EDFA"/>
<path d="M202.765 121.456L177.755 133.81L183.571 151.459L208 139.105L202.765 121.456Z" fill="#3FB6D7"/>
<path d="M177.755 133.81C196.367 138.987 202.571 127.927 202.765 121.456L208 139.105L183.571 151.459L177.755 133.81Z" fill="#289FBF"/>
<path d="M153.977 127.35V132.532C154.699 133.993 156.005 133.558 156.772 133.025C156.956 132.897 157.05 132.679 157.05 132.455V125.796L153.977 127.35Z" fill="#C9E2FF"/>
<path d="M179.51 113.366V119.584C180.233 121.045 181.538 120.61 182.306 120.077C182.49 119.949 182.584 119.731 182.584 119.507V111.812L179.51 113.366Z" fill="#C9E2FF"/>
<path d="M147.51 112.544L154.033 115.814V129.573L147.51 126.228V112.544Z" fill="#C9E2FF"/>
<path d="M180.526 95.5713L147.51 112.542L154.005 115.827L186.479 98.8418L180.526 95.5713Z" fill="#EFF6FF"/>
<path d="M154.005 129.511V115.825L186.479 98.8408V112.541L154.005 129.511Z" fill="#D7E9FF"/>
<path d="M184.856 100.498L155.087 115.826V127.87L184.856 112.542V100.498Z" fill="#1B1725"/>
<path d="M203.248 171.586L198.801 173.864C198.747 173.892 198.735 173.963 198.776 174.007L201.705 177.144C201.733 177.174 201.777 177.181 201.813 177.163L206.202 174.943C206.256 174.916 206.269 174.845 206.229 174.801L203.358 171.606C203.33 171.575 203.285 171.567 203.248 171.586Z" fill="#2B8CFF"/>
<path d="M198.806 173.294C198.711 173.888 198.742 173.968 198.79 174.017C198.805 174.032 198.824 174.041 198.845 174.043C201.233 174.308 205.965 174.894 206.129 174.95C206.294 175.005 206.307 174.496 206.309 174.179C206.309 174.134 206.276 174.095 206.231 174.089L199.265 173.014C199.244 173.011 199.223 173.014 199.205 173.025L198.851 173.23C198.827 173.243 198.811 173.267 198.806 173.294Z" fill="#2A8CFF"/>
<path d="M203.309 170.917L198.863 173.195C198.808 173.223 198.796 173.295 198.838 173.339L201.765 176.416C201.793 176.445 201.837 176.453 201.873 176.435L206.262 174.215C206.316 174.188 206.329 174.117 206.288 174.072L203.418 170.937C203.39 170.907 203.346 170.899 203.309 170.917Z" fill="#5FA8FF"/>
<path d="M206.249 174.038C203.611 172 200.233 172.784 198.874 173.371L201.812 176.464L206.009 174.341C206.429 174.22 206.269 174.098 206.249 174.038Z" fill="#85BDFF"/>
<path d="M206.966 176.071L202.519 178.349C202.465 178.377 202.453 178.448 202.494 178.493L205.423 181.629C205.451 181.659 205.495 181.667 205.531 181.648L209.92 179.429C209.974 179.401 209.987 179.331 209.947 179.286L207.076 176.091C207.048 176.061 207.003 176.052 206.966 176.071Z" fill="#2B8CFF"/>
<path d="M202.524 177.782C202.429 178.375 202.46 178.455 202.508 178.505C202.523 178.52 202.542 178.528 202.563 178.531C204.951 178.795 209.683 179.382 209.847 179.437C210.012 179.493 210.026 178.984 210.027 178.666C210.027 178.621 209.994 178.583 209.949 178.576L202.983 177.501C202.962 177.498 202.941 177.502 202.923 177.512L202.569 177.717C202.545 177.731 202.529 177.755 202.524 177.782Z" fill="#2A8CFF"/>
<path d="M207.027 175.405L202.58 177.683C202.526 177.71 202.514 177.783 202.556 177.827L205.483 180.904C205.511 180.933 205.554 180.94 205.59 180.922L209.979 178.702C210.033 178.675 210.046 178.604 210.005 178.559L207.135 175.424C207.108 175.394 207.063 175.386 207.027 175.405Z" fill="#5FA8FF"/>
<path d="M209.967 178.526C207.328 176.488 203.95 177.273 202.591 177.859L205.529 180.952L209.727 178.829C210.147 178.708 209.987 178.587 209.967 178.526Z" fill="#85BDFF"/>
<path d="M210.603 180.34L206.156 182.618C206.102 182.645 206.089 182.717 206.131 182.761L209.06 185.898C209.087 185.928 209.131 185.935 209.168 185.917L213.557 183.697C213.611 183.67 213.624 183.599 213.584 183.555L210.712 180.36C210.685 180.329 210.64 180.321 210.603 180.34Z" fill="#2B8CFF"/>
<path d="M206.161 182.049C206.065 182.642 206.097 182.723 206.145 182.772C206.16 182.787 206.179 182.796 206.199 182.798C208.588 183.063 213.32 183.649 213.483 183.704C213.649 183.76 213.662 183.251 213.663 182.933C213.663 182.888 213.631 182.85 213.586 182.843L206.62 181.769C206.599 181.765 206.578 181.769 206.56 181.78L206.205 181.985C206.182 181.998 206.165 182.022 206.161 182.049Z" fill="#2A8CFF"/>
<path d="M210.664 179.672L206.217 181.95C206.163 181.978 206.151 182.05 206.193 182.094L209.12 185.171C209.148 185.2 209.191 185.208 209.227 185.19L213.616 182.97C213.67 182.943 213.683 182.871 213.643 182.827L210.773 179.692C210.745 179.662 210.7 179.654 210.664 179.672Z" fill="#5FA8FF"/>
<path d="M213.604 182.794C210.966 180.756 207.588 181.54 206.229 182.127L209.167 185.22L213.364 183.097C213.784 182.976 213.624 182.854 213.604 182.794Z" fill="#85BDFF"/>
<path d="M213.948 184.569L209.501 186.847C209.447 186.875 209.435 186.946 209.476 186.991L212.405 190.127C212.433 190.157 212.477 190.165 212.513 190.147L216.903 187.927C216.956 187.899 216.969 187.829 216.929 187.784L214.058 184.589C214.03 184.559 213.985 184.55 213.948 184.569Z" fill="#2B8CFF"/>
<path d="M209.507 186.279C209.411 186.872 209.442 186.952 209.49 187.002C209.505 187.017 209.524 187.025 209.545 187.028C211.934 187.292 216.666 187.879 216.829 187.934C216.994 187.99 217.008 187.481 217.009 187.163C217.009 187.118 216.976 187.08 216.932 187.073L209.965 185.998C209.945 185.995 209.923 185.999 209.905 186.009L209.551 186.214C209.527 186.228 209.511 186.252 209.507 186.279Z" fill="#2A8CFF"/>
<path d="M214.009 183.901L209.562 186.179C209.508 186.207 209.495 186.279 209.538 186.323L212.465 189.4C212.492 189.429 212.536 189.436 212.572 189.418L216.961 187.198C217.015 187.171 217.028 187.1 216.987 187.055L214.117 183.92C214.09 183.89 214.045 183.882 214.009 183.901Z" fill="#5FA8FF"/>
<path d="M216.949 187.022C214.31 184.984 210.933 185.769 209.573 186.355L212.512 189.448L216.709 187.325C217.129 187.204 216.969 187.083 216.949 187.022Z" fill="#85BDFF"/>
<path d="M219.383 181.61L214.936 183.888C214.882 183.916 214.87 183.987 214.911 184.032L217.84 187.168C217.867 187.198 217.911 187.206 217.948 187.188L222.337 184.968C222.391 184.94 222.404 184.87 222.364 184.825L219.492 181.63C219.465 181.6 219.42 181.591 219.383 181.61Z" fill="#2B8CFF"/>
<path d="M214.941 183.32C214.846 183.913 214.877 183.993 214.925 184.043C214.94 184.058 214.959 184.066 214.98 184.069C217.368 184.333 222.1 184.92 222.264 184.975C222.429 185.031 222.443 184.522 222.444 184.204C222.444 184.159 222.411 184.121 222.366 184.114L215.4 183.039C215.379 183.036 215.358 183.04 215.34 183.05L214.986 183.255C214.962 183.269 214.946 183.293 214.941 183.32Z" fill="#2A8CFF"/>
<path d="M219.444 180.941L214.997 183.219C214.943 183.247 214.931 183.319 214.973 183.363L217.9 186.44C217.928 186.469 217.971 186.476 218.007 186.458L222.396 184.238C222.45 184.211 222.463 184.14 222.423 184.095L219.553 180.96C219.525 180.93 219.48 180.922 219.444 180.941Z" fill="#5FA8FF"/>
<path d="M222.384 184.062C219.746 182.024 216.368 182.809 215.009 183.395L217.947 186.488L222.144 184.365C222.564 184.244 222.404 184.123 222.384 184.062Z" fill="#85BDFF"/>
<path d="M224.818 178.65L220.372 180.928C220.318 180.956 220.305 181.028 220.346 181.072L223.275 184.208C223.303 184.238 223.347 184.246 223.383 184.228L227.773 182.008C227.826 181.981 227.84 181.91 227.799 181.865L224.928 178.67C224.9 178.64 224.855 178.631 224.818 178.65Z" fill="#2B8CFF"/>
<path d="M220.377 180.36C220.281 180.953 220.312 181.033 220.36 181.083C220.375 181.098 220.394 181.106 220.415 181.109C222.804 181.373 227.536 181.96 227.699 182.015C227.865 182.071 227.878 181.562 227.879 181.244C227.879 181.199 227.846 181.161 227.802 181.154L220.835 180.079C220.815 180.076 220.794 180.08 220.776 180.09L220.421 180.295C220.397 180.309 220.381 180.333 220.377 180.36Z" fill="#2A8CFF"/>
<path d="M224.879 177.98L220.433 180.258C220.379 180.286 220.366 180.358 220.408 180.402L223.336 183.479C223.363 183.508 223.407 183.515 223.443 183.497L227.832 181.278C227.886 181.25 227.899 181.179 227.858 181.135L224.988 178C224.961 177.969 224.916 177.961 224.879 177.98Z" fill="#5FA8FF"/>
<path d="M227.819 181.102C225.181 179.064 221.803 179.849 220.444 180.435L223.382 183.528L227.579 181.406C227.999 181.284 227.839 181.163 227.819 181.102Z" fill="#85BDFF"/>
<path d="M221.055 174.42L216.608 176.698C216.554 176.726 216.542 176.797 216.583 176.841L219.512 179.978C219.54 180.008 219.584 180.015 219.62 179.997L224.01 177.777C224.063 177.75 224.076 177.679 224.036 177.635L221.165 174.44C221.137 174.409 221.092 174.401 221.055 174.42Z" fill="#2B8CFF"/>
<path d="M216.614 176.128C216.518 176.722 216.549 176.802 216.598 176.851C216.612 176.866 216.631 176.875 216.652 176.877C219.041 177.142 223.773 177.728 223.936 177.784C224.102 177.839 224.115 177.33 224.116 177.013C224.116 176.968 224.083 176.929 224.039 176.923L217.072 175.848C217.052 175.845 217.031 175.848 217.013 175.859L216.658 176.064C216.634 176.077 216.618 176.101 216.614 176.128Z" fill="#2A8CFF"/>
<path d="M221.116 173.751L216.67 176.029C216.615 176.057 216.603 176.129 216.645 176.173L219.572 179.25C219.6 179.279 219.644 179.287 219.68 179.269L224.069 177.049C224.123 177.022 224.136 176.951 224.095 176.906L221.225 173.771C221.197 173.741 221.153 173.733 221.116 173.751Z" fill="#5FA8FF"/>
<path d="M224.056 176.874C221.417 174.836 218.04 175.62 216.68 176.207L219.619 179.3L223.816 177.177C224.236 177.056 224.076 176.934 224.056 176.874Z" fill="#85BDFF"/>
<path d="M226.491 171.461L222.044 173.739C221.99 173.767 221.977 173.838 222.019 173.882L224.948 177.019C224.975 177.049 225.019 177.056 225.055 177.038L229.445 174.818C229.499 174.791 229.512 174.72 229.472 174.676L226.6 171.481C226.573 171.45 226.528 171.442 226.491 171.461Z" fill="#2B8CFF"/>
<path d="M222.049 173.17C221.954 173.764 221.985 173.844 222.033 173.893C222.048 173.908 222.067 173.917 222.088 173.919C224.476 174.184 229.208 174.77 229.372 174.826C229.537 174.881 229.55 174.372 229.551 174.055C229.552 174.01 229.519 173.971 229.474 173.965L222.508 172.89C222.487 172.886 222.466 172.89 222.448 172.901L222.094 173.106C222.07 173.119 222.054 173.143 222.049 173.17Z" fill="#2A8CFF"/>
<path d="M226.552 170.792L222.105 173.07C222.051 173.098 222.039 173.17 222.081 173.214L225.008 176.291C225.036 176.32 225.079 176.328 225.115 176.31L229.504 174.09C229.558 174.063 229.571 173.992 229.531 173.947L226.661 170.812C226.633 170.782 226.588 170.774 226.552 170.792Z" fill="#5FA8FF"/>
<path d="M229.492 173.914C226.853 171.876 223.476 172.66 222.116 173.247L225.055 176.34L229.252 174.217C229.672 174.096 229.512 173.974 229.492 173.914Z" fill="#85BDFF"/>
<path d="M222.728 167.229L218.281 169.507C218.227 169.535 218.214 169.607 218.256 169.651L221.184 172.788C221.212 172.817 221.256 172.825 221.292 172.807L225.682 170.587C225.736 170.56 225.749 170.489 225.709 170.444L222.837 167.25C222.809 167.219 222.765 167.21 222.728 167.229Z" fill="#2B8CFF"/>
<path d="M218.286 168.939C218.19 169.532 218.221 169.612 218.269 169.662C218.284 169.677 218.303 169.686 218.324 169.688C220.713 169.952 225.445 170.539 225.608 170.594C225.773 170.65 225.787 170.141 225.788 169.823C225.788 169.778 225.755 169.74 225.711 169.733L218.744 168.658C218.724 168.655 218.703 168.659 218.685 168.669L218.33 168.874C218.306 168.888 218.29 168.912 218.286 168.939Z" fill="#2A8CFF"/>
<path d="M222.788 166.562L218.341 168.84C218.287 168.868 218.275 168.94 218.317 168.984L221.244 172.061C221.272 172.09 221.315 172.098 221.351 172.079L225.74 169.86C225.794 169.832 225.807 169.761 225.767 169.717L222.897 166.582C222.869 166.551 222.824 166.543 222.788 166.562Z" fill="#5FA8FF"/>
<path d="M225.728 169.682C223.09 167.645 219.712 168.429 218.353 169.015L221.291 172.108L225.488 169.986C225.908 169.864 225.748 169.743 225.728 169.682Z" fill="#85BDFF"/>
<path d="M219.383 163.002L214.936 165.28C214.882 165.308 214.87 165.379 214.911 165.423L217.84 168.56C217.867 168.59 217.911 168.597 217.948 168.579L222.337 166.359C222.391 166.332 222.404 166.261 222.364 166.217L219.492 163.022C219.465 162.991 219.42 162.983 219.383 163.002Z" fill="#2B8CFF"/>
<path d="M214.941 164.711C214.845 165.305 214.877 165.385 214.925 165.434C214.94 165.449 214.959 165.458 214.979 165.46C217.368 165.725 222.1 166.311 222.263 166.367C222.429 166.422 222.442 165.913 222.443 165.596C222.443 165.551 222.411 165.512 222.366 165.506L215.4 164.431C215.379 164.428 215.358 164.431 215.34 164.442L214.986 164.647C214.962 164.66 214.945 164.684 214.941 164.711Z" fill="#2A8CFF"/>
<path d="M219.444 162.334L214.997 164.612C214.943 164.64 214.931 164.712 214.973 164.756L217.9 167.833C217.928 167.862 217.971 167.87 218.007 167.852L222.396 165.632C222.45 165.605 222.463 165.534 222.423 165.489L219.553 162.354C219.525 162.324 219.48 162.316 219.444 162.334Z" fill="#5FA8FF"/>
<path d="M222.383 165.456C219.745 163.418 216.367 164.202 215.008 164.789L217.946 167.882L222.144 165.759C222.563 165.638 222.403 165.516 222.383 165.456Z" fill="#85BDFF"/>
<path d="M230.254 175.689L225.807 177.967C225.753 177.995 225.74 178.067 225.781 178.111L228.71 181.247C228.738 181.277 228.782 181.285 228.818 181.267L233.208 179.047C233.261 179.02 233.275 178.949 233.234 178.904L230.363 175.709C230.335 175.679 230.29 175.67 230.254 175.689Z" fill="#2B8CFF"/>
<path d="M225.812 177.399C225.716 177.992 225.747 178.072 225.796 178.122C225.81 178.137 225.829 178.145 225.85 178.148C228.239 178.412 232.971 178.999 233.134 179.054C233.3 179.11 233.313 178.601 233.314 178.283C233.314 178.238 233.281 178.2 233.237 178.193L226.27 177.118C226.25 177.115 226.229 177.119 226.211 177.129L225.856 177.334C225.832 177.348 225.816 177.372 225.812 177.399Z" fill="#2A8CFF"/>
<path d="M230.314 175.021L225.868 177.299C225.813 177.327 225.801 177.399 225.843 177.443L228.77 180.52C228.798 180.549 228.842 180.556 228.878 180.538L233.267 178.319C233.321 178.291 233.334 178.22 233.293 178.176L230.423 175.041C230.395 175.01 230.351 175.002 230.314 175.021Z" fill="#5FA8FF"/>
<path d="M233.254 178.142C230.616 176.104 227.238 176.889 225.879 177.475L228.817 180.568L233.014 178.446C233.434 178.324 233.274 178.203 233.254 178.142Z" fill="#85BDFF"/>
<path d="M215.72 177.285L211.273 179.563C211.219 179.591 211.207 179.662 211.248 179.707L214.177 182.843C214.205 182.873 214.249 182.881 214.285 182.862L218.675 180.642C218.728 180.615 218.741 180.545 218.701 180.5L215.83 177.305C215.802 177.274 215.757 177.266 215.72 177.285Z" fill="#2B8CFF"/>
<path d="M211.279 178.995C211.183 179.588 211.214 179.668 211.263 179.717C211.277 179.732 211.296 179.741 211.317 179.743C213.706 180.008 218.438 180.595 218.601 180.65C218.767 180.706 218.78 180.197 218.781 179.879C218.781 179.834 218.748 179.796 218.704 179.789L211.737 178.714C211.717 178.711 211.696 178.715 211.678 178.725L211.323 178.93C211.299 178.944 211.283 178.968 211.279 178.995Z" fill="#2A8CFF"/>
<path d="M215.781 176.618L211.335 178.896C211.281 178.923 211.268 178.996 211.31 179.04L214.238 182.116C214.265 182.146 214.309 182.153 214.345 182.135L218.734 179.915C218.788 179.888 218.801 179.817 218.76 179.772L215.89 176.637C215.863 176.607 215.818 176.599 215.781 176.618Z" fill="#5FA8FF"/>
<path d="M218.721 179.739C216.083 177.701 212.705 178.486 211.346 179.072L214.284 182.165L218.481 180.042C218.901 179.921 218.741 179.8 218.721 179.739Z" fill="#85BDFF"/>
<path d="M212.361 172.923L207.914 175.201C207.861 175.228 207.848 175.3 207.889 175.344L210.818 178.481C210.846 178.511 210.89 178.518 210.926 178.5L215.316 176.28C215.369 176.253 215.383 176.182 215.342 176.138L212.471 172.943C212.443 172.912 212.398 172.904 212.361 172.923Z" fill="#2B8CFF"/>
<path d="M207.92 174.632C207.824 175.225 207.855 175.306 207.903 175.355C207.918 175.37 207.937 175.379 207.958 175.381C210.347 175.646 215.079 176.232 215.242 176.287C215.407 176.343 215.421 175.834 215.422 175.516C215.422 175.471 215.389 175.433 215.345 175.426L208.378 174.352C208.358 174.348 208.337 174.352 208.319 174.363L207.964 174.568C207.94 174.581 207.924 174.605 207.92 174.632Z" fill="#2A8CFF"/>
<path d="M212.422 172.251L207.976 174.529C207.921 174.557 207.909 174.629 207.951 174.673L210.878 177.75C210.906 177.779 210.95 177.787 210.986 177.769L215.375 175.549C215.429 175.522 215.442 175.451 215.401 175.406L212.531 172.271C212.503 172.241 212.459 172.233 212.422 172.251Z" fill="#5FA8FF"/>
<path d="M215.363 175.373C212.724 173.335 209.346 174.119 207.987 174.706L210.925 177.799L215.123 175.676C215.543 175.555 215.383 175.433 215.363 175.373Z" fill="#85BDFF"/>
<path d="M208.645 168.794L204.198 171.072C204.144 171.1 204.131 171.171 204.173 171.215L207.102 174.352C207.129 174.382 207.173 174.389 207.21 174.371L211.599 172.151C211.653 172.124 211.666 172.053 211.626 172.009L208.754 168.814C208.727 168.783 208.682 168.775 208.645 168.794Z" fill="#2B8CFF"/>
<path d="M204.203 170.503C204.107 171.097 204.139 171.177 204.187 171.226C204.202 171.241 204.221 171.25 204.241 171.252C206.63 171.517 211.362 172.103 211.525 172.159C211.691 172.214 211.704 171.705 211.705 171.388C211.705 171.343 211.673 171.304 211.628 171.298L204.662 170.223C204.641 170.22 204.62 170.223 204.602 170.234L204.247 170.439C204.224 170.452 204.207 170.476 204.203 170.503Z" fill="#2A8CFF"/>
<path d="M208.706 168.127L204.259 170.405C204.205 170.433 204.193 170.505 204.235 170.549L207.162 173.626C207.189 173.655 207.233 173.663 207.269 173.645L211.658 171.425C211.712 171.398 211.725 171.327 211.684 171.282L208.814 168.147C208.787 168.117 208.742 168.109 208.706 168.127Z" fill="#5FA8FF"/>
<path d="M211.646 171.249C209.007 169.211 205.629 169.995 204.27 170.582L207.208 173.675L211.406 171.552C211.825 171.431 211.666 171.309 211.646 171.249Z" fill="#85BDFF"/>
<path d="M214.282 166.004L209.835 168.282C209.781 168.309 209.768 168.381 209.81 168.425L212.739 171.562C212.766 171.592 212.81 171.599 212.846 171.581L217.236 169.361C217.29 169.334 217.303 169.263 217.263 169.219L214.391 166.024C214.364 165.993 214.319 165.985 214.282 166.004Z" fill="#2B8CFF"/>
<path d="M209.84 167.713C209.745 168.306 209.776 168.387 209.824 168.436C209.839 168.451 209.858 168.46 209.879 168.462C212.267 168.727 216.999 169.313 217.163 169.368C217.328 169.424 217.341 168.915 217.342 168.597C217.343 168.552 217.31 168.514 217.265 168.507L210.299 167.433C210.278 167.429 210.257 167.433 210.239 167.444L209.885 167.649C209.861 167.662 209.845 167.686 209.84 167.713Z" fill="#2A8CFF"/>
<path d="M214.342 165.334L209.896 167.612C209.842 167.64 209.829 167.712 209.871 167.756L212.798 170.833C212.826 170.862 212.87 170.87 212.906 170.852L217.295 168.632C217.349 168.605 217.362 168.534 217.321 168.489L214.451 165.354C214.423 165.324 214.379 165.316 214.342 165.334Z" fill="#5FA8FF"/>
<path d="M217.282 168.455C214.643 166.417 211.266 167.201 209.906 167.788L212.845 170.881L217.042 168.758C217.462 168.637 217.302 168.515 217.282 168.455Z" fill="#85BDFF"/>
<path d="M217.711 170.192L213.264 172.47C213.21 172.498 213.197 172.57 213.239 172.614L216.168 175.75C216.195 175.78 216.239 175.788 216.275 175.77L220.665 173.55C220.719 173.523 220.732 173.452 220.692 173.407L217.82 170.212C217.793 170.182 217.748 170.173 217.711 170.192Z" fill="#2B8CFF"/>
<path d="M213.269 171.902C213.174 172.495 213.205 172.575 213.253 172.625C213.268 172.64 213.287 172.648 213.308 172.651C215.696 172.915 220.428 173.502 220.592 173.557C220.757 173.613 220.77 173.104 220.771 172.786C220.772 172.741 220.739 172.703 220.694 172.696L213.728 171.621C213.707 171.618 213.686 171.622 213.668 171.632L213.314 171.837C213.29 171.851 213.274 171.875 213.269 171.902Z" fill="#2A8CFF"/>
<path d="M217.771 169.524L213.325 171.802C213.271 171.83 213.258 171.902 213.3 171.946L216.228 175.023C216.255 175.052 216.299 175.059 216.335 175.041L220.724 172.822C220.778 172.794 220.791 172.723 220.75 172.678L217.88 169.544C217.853 169.513 217.808 169.505 217.771 169.524Z" fill="#5FA8FF"/>
<path d="M220.712 172.646C218.074 170.608 214.696 171.393 213.337 171.979L216.275 175.072L220.472 172.949C220.892 172.828 220.732 172.707 220.712 172.646Z" fill="#85BDFF"/>
<path d="M176.757 184.396L172.037 186.538C171.98 186.564 171.964 186.638 172.004 186.686L174.89 190.082C174.917 190.114 174.962 190.124 175 190.107L179.658 188.022C179.715 187.996 179.732 187.924 179.693 187.876L176.87 184.422C176.843 184.389 176.796 184.378 176.757 184.396Z" fill="#2B8CFF"/>
<path d="M172.07 185.95C171.942 186.56 171.971 186.645 172.019 186.698C172.033 186.714 172.052 186.724 172.074 186.728C174.538 187.12 179.415 187.961 179.582 188.027C179.751 188.093 179.789 187.566 179.805 187.236C179.808 187.189 179.775 187.148 179.73 187.139L172.559 185.681C172.538 185.677 172.516 185.68 172.497 185.69L172.119 185.885C172.094 185.898 172.076 185.922 172.07 185.95Z" fill="#2A8CFF"/>
<path d="M176.852 183.708L172.133 185.85C172.075 185.876 172.059 185.95 172.1 185.998L174.987 189.332C175.014 189.364 175.059 189.374 175.097 189.357L179.754 187.272C179.812 187.246 179.828 187.173 179.788 187.125L176.964 183.733C176.937 183.701 176.891 183.69 176.852 183.708Z" fill="#5FA8FF"/>
<path d="M179.75 187.09C177.113 184.847 173.573 185.493 172.136 186.034L175.033 189.386L179.487 187.392C179.928 187.287 179.768 187.153 179.75 187.09Z" fill="#85BDFF"/>
<path d="M180.521 188.625L175.8 190.767C175.743 190.793 175.727 190.867 175.768 190.915L178.653 194.311C178.68 194.343 178.725 194.354 178.764 194.336L183.421 192.251C183.478 192.226 183.495 192.153 183.456 192.105L180.633 188.651C180.606 188.618 180.56 188.607 180.521 188.625Z" fill="#2B8CFF"/>
<path d="M175.834 190.178C175.706 190.788 175.734 190.873 175.782 190.927C175.796 190.943 175.816 190.953 175.837 190.956C178.301 191.348 183.178 192.19 183.345 192.255C183.514 192.321 183.552 191.794 183.569 191.465C183.571 191.418 183.539 191.377 183.493 191.368L176.323 189.91C176.301 189.905 176.279 189.908 176.26 189.918L175.883 190.113C175.858 190.126 175.839 190.15 175.834 190.178Z" fill="#2A8CFF"/>
<path d="M180.615 187.936L175.896 190.079C175.838 190.105 175.822 190.179 175.863 190.227L178.75 193.561C178.777 193.592 178.822 193.602 178.86 193.585L183.518 191.501C183.575 191.475 183.592 191.402 183.551 191.354L180.727 187.962C180.7 187.929 180.654 187.919 180.615 187.936Z" fill="#5FA8FF"/>
<path d="M183.513 191.318C180.876 189.075 177.336 189.722 175.899 190.263L178.796 193.614L183.25 191.621C183.691 191.516 183.531 191.382 183.513 191.318Z" fill="#85BDFF"/>
<path d="M184.283 193.278L179.563 195.421C179.506 195.447 179.49 195.52 179.53 195.568L182.416 198.965C182.443 198.997 182.488 199.007 182.527 198.99L187.184 196.905C187.241 196.879 187.258 196.807 187.219 196.758L184.396 193.305C184.369 193.271 184.323 193.261 184.283 193.278Z" fill="#2B8CFF"/>
<path d="M179.596 194.831C179.469 195.442 179.497 195.526 179.545 195.58C179.559 195.596 179.579 195.606 179.6 195.61C182.064 196.002 186.941 196.843 187.108 196.908C187.277 196.974 187.315 196.448 187.331 196.118C187.334 196.071 187.301 196.03 187.256 196.021L180.085 194.563C180.064 194.559 180.042 194.562 180.023 194.572L179.646 194.767C179.62 194.78 179.602 194.804 179.596 194.831Z" fill="#2A8CFF"/>
<path d="M184.378 192.588L179.659 194.73C179.601 194.756 179.585 194.83 179.626 194.878L182.512 198.212C182.54 198.244 182.585 198.254 182.623 198.237L187.28 196.152C187.337 196.126 187.354 196.053 187.314 196.005L184.49 192.613C184.463 192.581 184.417 192.57 184.378 192.588Z" fill="#5FA8FF"/>
<path d="M187.276 195.969C184.639 193.727 181.1 194.373 179.662 194.914L182.559 198.266L187.013 196.272C187.454 196.167 187.294 196.033 187.276 195.969Z" fill="#85BDFF"/>
<path d="M188.046 197.928L183.326 200.07C183.269 200.096 183.252 200.17 183.293 200.218L186.178 203.614C186.205 203.646 186.251 203.656 186.289 203.639L190.947 201.554C191.004 201.529 191.021 201.456 190.981 201.408L188.158 197.954C188.131 197.921 188.085 197.91 188.046 197.928Z" fill="#2B8CFF"/>
<path d="M183.359 199.481C183.231 200.091 183.26 200.176 183.307 200.229C183.322 200.246 183.341 200.256 183.362 200.259C185.826 200.651 190.704 201.493 190.87 201.558C191.039 201.624 191.077 201.097 191.094 200.767C191.096 200.721 191.064 200.68 191.018 200.67L183.848 199.212C183.827 199.208 183.805 199.211 183.785 199.221L183.408 199.416C183.383 199.429 183.365 199.453 183.359 199.481Z" fill="#2A8CFF"/>
<path d="M188.141 197.239L183.421 199.381C183.364 199.407 183.347 199.482 183.389 199.529L186.275 202.864C186.303 202.895 186.347 202.905 186.386 202.888L191.043 200.803C191.1 200.778 191.117 200.704 191.077 200.656L188.253 197.265C188.225 197.232 188.18 197.221 188.141 197.239Z" fill="#5FA8FF"/>
<path d="M191.039 200.621C188.402 198.378 184.862 199.025 183.425 199.566L186.322 202.917L190.775 200.923C191.216 200.818 191.056 200.685 191.039 200.621Z" fill="#85BDFF"/>
<path d="M193.899 194.545L189.179 196.687C189.122 196.713 189.106 196.787 189.146 196.835L192.032 200.231C192.059 200.263 192.104 200.273 192.142 200.256L196.8 198.171C196.857 198.146 196.874 198.073 196.835 198.025L194.012 194.571C193.985 194.538 193.939 194.527 193.899 194.545Z" fill="#2B8CFF"/>
<path d="M189.212 196.098C189.085 196.708 189.113 196.793 189.161 196.847C189.175 196.863 189.195 196.873 189.216 196.876C191.68 197.268 196.557 198.11 196.724 198.175C196.893 198.241 196.931 197.714 196.947 197.385C196.95 197.338 196.917 197.297 196.872 197.287L189.701 195.83C189.68 195.825 189.658 195.828 189.639 195.838L189.261 196.033C189.236 196.046 189.218 196.07 189.212 196.098Z" fill="#2A8CFF"/>
<path d="M193.994 193.857L189.275 195.999C189.217 196.026 189.201 196.1 189.242 196.148L192.129 199.482C192.156 199.513 192.201 199.523 192.239 199.506L196.896 197.421C196.954 197.396 196.971 197.323 196.93 197.274L194.106 193.883C194.079 193.85 194.033 193.84 193.994 193.857Z" fill="#5FA8FF"/>
<path d="M196.892 197.239C194.255 194.996 190.715 195.643 189.278 196.184L192.175 199.535L196.629 197.542C197.07 197.436 196.91 197.303 196.892 197.239Z" fill="#85BDFF"/>
<path d="M199.753 192.007L195.033 194.149C194.976 194.175 194.959 194.249 195 194.297L197.885 197.693C197.912 197.725 197.958 197.735 197.996 197.718L202.654 195.633C202.711 195.608 202.728 195.535 202.688 195.487L199.865 192.033C199.838 192 199.792 191.989 199.753 192.007Z" fill="#2B8CFF"/>
<path d="M195.066 193.56C194.938 194.17 194.967 194.255 195.014 194.309C195.029 194.325 195.048 194.335 195.07 194.338C197.533 194.73 202.411 195.572 202.578 195.637C202.746 195.703 202.785 195.176 202.801 194.846C202.803 194.8 202.771 194.759 202.725 194.749L195.555 193.292C195.534 193.287 195.512 193.29 195.493 193.3L195.115 193.495C195.09 193.508 195.072 193.532 195.066 193.56Z" fill="#2A8CFF"/>
<path d="M199.848 191.318L195.128 193.46C195.071 193.486 195.054 193.561 195.096 193.609L197.982 196.943C198.01 196.974 198.054 196.984 198.093 196.967L202.75 194.882C202.807 194.857 202.824 194.784 202.784 194.735L199.96 191.344C199.932 191.311 199.887 191.3 199.848 191.318Z" fill="#5FA8FF"/>
<path d="M202.745 194.7C200.108 192.457 196.569 193.104 195.131 193.645L198.028 196.996L202.482 195.002C202.923 194.897 202.763 194.764 202.745 194.7Z" fill="#85BDFF"/>
<path d="M195.99 187.356L191.27 189.499C191.212 189.525 191.196 189.598 191.237 189.646L194.122 193.043C194.149 193.075 194.194 193.085 194.233 193.068L198.891 190.983C198.948 190.957 198.965 190.885 198.925 190.837L196.102 187.383C196.075 187.35 196.029 187.339 195.99 187.356Z" fill="#2B8CFF"/>
<path d="M191.303 188.909C191.175 189.519 191.203 189.604 191.251 189.657C191.265 189.673 191.285 189.683 191.306 189.687C193.77 190.079 198.647 190.92 198.814 190.986C198.983 191.052 199.021 190.525 199.038 190.195C199.04 190.148 199.008 190.107 198.962 190.098L191.792 188.64C191.77 188.636 191.748 188.639 191.729 188.649L191.352 188.844C191.327 188.857 191.308 188.881 191.303 188.909Z" fill="#2A8CFF"/>
<path d="M196.085 186.668L191.365 188.81C191.308 188.836 191.292 188.91 191.333 188.958L194.219 192.292C194.247 192.324 194.291 192.334 194.33 192.317L198.987 190.232C199.044 190.206 199.061 190.133 199.021 190.085L196.197 186.693C196.17 186.661 196.124 186.65 196.085 186.668Z" fill="#5FA8FF"/>
<path d="M198.982 190.049C196.345 187.807 192.806 188.453 191.368 188.994L194.265 192.346L198.719 190.352C199.16 190.247 199 190.113 198.982 190.049Z" fill="#85BDFF"/>
<path d="M190.137 190.316L185.416 192.459C185.359 192.485 185.343 192.558 185.384 192.606L188.269 196.003C188.296 196.035 188.341 196.045 188.38 196.028L193.037 193.943C193.094 193.917 193.111 193.845 193.072 193.796L190.249 190.343C190.222 190.309 190.176 190.299 190.137 190.316Z" fill="#2B8CFF"/>
<path d="M185.449 191.869C185.321 192.479 185.35 192.563 185.398 192.617C185.412 192.633 185.431 192.643 185.453 192.647C187.917 193.039 192.794 193.88 192.961 193.946C193.129 194.012 193.168 193.485 193.184 193.155C193.187 193.108 193.154 193.067 193.108 193.058L185.938 191.6C185.917 191.596 185.895 191.599 185.876 191.609L185.498 191.804C185.473 191.817 185.455 191.841 185.449 191.869Z" fill="#2A8CFF"/>
<path d="M190.232 189.629L185.512 191.771C185.454 191.797 185.438 191.871 185.48 191.919L188.366 195.253C188.393 195.285 188.438 195.295 188.476 195.278L193.134 193.193C193.191 193.167 193.208 193.094 193.168 193.046L190.344 189.654C190.316 189.622 190.27 189.611 190.232 189.629Z" fill="#5FA8FF"/>
<path d="M193.129 193.009C190.492 190.767 186.952 191.413 185.515 191.954L188.412 195.306L192.866 193.312C193.307 193.207 193.147 193.073 193.129 193.009Z" fill="#85BDFF"/>
<path d="M186.379 185.795L181.659 187.937C181.602 187.963 181.586 188.037 181.626 188.085L184.512 191.481C184.539 191.513 184.584 191.523 184.622 191.506L189.28 189.421C189.337 189.396 189.354 189.323 189.315 189.275L186.492 185.821C186.465 185.788 186.419 185.777 186.379 185.795Z" fill="#2B8CFF"/>
<path d="M181.692 187.348C181.565 187.958 181.593 188.043 181.641 188.097C181.655 188.113 181.675 188.123 181.696 188.126C184.16 188.518 189.037 189.36 189.204 189.425C189.373 189.491 189.411 188.964 189.427 188.635C189.43 188.588 189.397 188.547 189.352 188.537L182.181 187.08C182.16 187.075 182.138 187.078 182.119 187.088L181.741 187.283C181.716 187.296 181.698 187.32 181.692 187.348Z" fill="#2A8CFF"/>
<path d="M186.474 185.105L181.754 187.247C181.697 187.274 181.68 187.348 181.722 187.396L184.608 190.73C184.636 190.761 184.68 190.771 184.719 190.754L189.376 188.669C189.433 188.644 189.45 188.571 189.41 188.522L186.586 185.131C186.558 185.098 186.513 185.088 186.474 185.105Z" fill="#5FA8FF"/>
<path d="M189.372 188.487C186.735 186.244 183.195 186.891 181.758 187.432L184.655 190.783L189.108 188.79C189.549 188.684 189.389 188.551 189.372 188.487Z" fill="#85BDFF"/>
<path d="M182.723 181.336L178.003 183.478C177.946 183.504 177.93 183.578 177.97 183.626L180.856 187.022C180.883 187.054 180.928 187.065 180.966 187.047L185.624 184.962C185.681 184.937 185.698 184.864 185.659 184.816L182.836 181.362C182.809 181.329 182.763 181.318 182.723 181.336Z" fill="#2B8CFF"/>
<path d="M178.036 182.889C177.909 183.499 177.937 183.584 177.985 183.638C177.999 183.654 178.019 183.664 178.04 183.667C180.504 184.059 185.381 184.901 185.548 184.966C185.717 185.032 185.755 184.505 185.771 184.176C185.774 184.129 185.741 184.088 185.696 184.078L178.525 182.621C178.504 182.616 178.482 182.619 178.463 182.629L178.085 182.824C178.06 182.837 178.042 182.861 178.036 182.889Z" fill="#2A8CFF"/>
<path d="M182.819 180.646L178.099 182.788C178.041 182.815 178.025 182.889 178.067 182.937L180.953 186.271C180.98 186.302 181.025 186.312 181.063 186.295L185.721 184.21C185.778 184.185 185.795 184.112 185.755 184.063L182.93 180.672C182.903 180.639 182.857 180.629 182.819 180.646Z" fill="#5FA8FF"/>
<path d="M185.716 184.028C183.079 181.785 179.539 182.432 178.102 182.973L180.999 186.324L185.453 184.331C185.894 184.225 185.734 184.092 185.716 184.028Z" fill="#85BDFF"/>
<path d="M188.464 178.475L183.744 180.617C183.687 180.643 183.67 180.717 183.711 180.765L186.596 184.161C186.624 184.193 186.669 184.203 186.707 184.186L191.365 182.101C191.422 182.076 191.439 182.003 191.4 181.955L188.577 178.501C188.549 178.468 188.503 178.457 188.464 178.475Z" fill="#2B8CFF"/>
<path d="M183.777 180.027C183.649 180.637 183.678 180.722 183.725 180.775C183.74 180.792 183.759 180.802 183.781 180.805C186.244 181.197 191.122 182.039 191.288 182.104C191.457 182.17 191.496 181.643 191.512 181.313C191.514 181.267 191.482 181.225 191.436 181.216L184.266 179.758C184.245 179.754 184.223 179.757 184.204 179.767L183.826 179.962C183.801 179.975 183.783 179.999 183.777 180.027Z" fill="#2A8CFF"/>
<path d="M188.559 177.787L183.839 179.929C183.781 179.955 183.765 180.029 183.807 180.077L186.693 183.411C186.72 183.443 186.765 183.453 186.803 183.436L191.461 181.351C191.518 181.325 191.535 181.252 191.495 181.204L188.67 177.813C188.643 177.78 188.597 177.769 188.559 177.787Z" fill="#5FA8FF"/>
<path d="M191.456 181.168C188.819 178.925 185.28 179.572 183.842 180.112L186.739 183.464L191.193 181.47C191.634 181.365 191.474 181.232 191.456 181.168Z" fill="#85BDFF"/>
<path d="M192.227 183.125L187.507 185.267C187.45 185.293 187.433 185.367 187.474 185.415L190.359 188.811C190.387 188.843 190.432 188.854 190.47 188.836L195.128 186.751C195.185 186.726 195.202 186.653 195.162 186.605L192.34 183.151C192.312 183.118 192.266 183.107 192.227 183.125Z" fill="#2B8CFF"/>
<path d="M187.54 184.678C187.412 185.288 187.441 185.373 187.488 185.427C187.503 185.443 187.522 185.453 187.544 185.456C190.007 185.848 194.885 186.69 195.051 186.755C195.22 186.821 195.259 186.294 195.275 185.965C195.277 185.918 195.245 185.877 195.199 185.868L188.029 184.41C188.008 184.405 187.986 184.408 187.967 184.418L187.589 184.613C187.564 184.626 187.546 184.65 187.54 184.678Z" fill="#2A8CFF"/>
<path d="M192.322 182.436L187.602 184.579C187.545 184.605 187.529 184.679 187.57 184.727L190.456 188.061C190.484 188.092 190.529 188.102 190.567 188.085L195.224 186.001C195.281 185.975 195.298 185.902 195.258 185.854L192.434 182.462C192.407 182.429 192.361 182.419 192.322 182.436Z" fill="#5FA8FF"/>
<path d="M195.22 185.818C192.583 183.575 189.043 184.222 187.606 184.763L190.502 188.114L194.956 186.121C195.397 186.016 195.237 185.882 195.22 185.818Z" fill="#85BDFF"/>
<ellipse cx="2.96739" cy="2.85287" rx="2.96739" ry="2.85287" transform="matrix(-0.863543 0.504275 -0.495737 -0.868473 234.462 241.99)" fill="#1B1725"/>
<path d="M235.507 111.125C234.889 112.207 234.032 113.046 232.936 113.639C231.871 114.225 230.622 114.493 229.189 114.443C227.787 114.385 226.325 113.952 224.803 113.142L223.438 115.534L221.559 114.437L222.941 112.015C220.968 110.626 219.648 109.029 218.982 107.223C218.328 105.397 218.49 103.537 219.468 101.64L224.812 104.761C224.255 106.011 224.39 107.1 225.217 108.029L227.88 103.363C226.578 102.078 225.573 100.98 224.867 100.069C224.18 99.1689 223.73 98.1056 223.517 96.8787C223.304 95.6519 223.607 94.32 224.428 92.8829C225.45 91.0916 226.926 90.0374 228.856 89.7206C230.805 89.4151 232.856 89.7993 235.009 90.8731L236.375 88.4813L238.254 89.5786L236.888 91.9704C238.854 93.3281 240.136 94.8772 240.734 96.6178C241.333 98.3583 241.172 100.194 240.253 102.124L234.88 98.9867C235.369 97.8551 235.264 96.8746 234.562 96.0453L231.95 100.622C233.316 102.024 234.338 103.159 235.017 104.027C235.696 104.896 236.141 105.944 236.355 107.171C236.599 108.389 236.316 109.707 235.507 111.125ZM229.877 95.75C229.596 96.2421 229.507 96.7413 229.609 97.2474C229.731 97.7649 230.003 98.3174 230.425 98.9047L232.768 94.8003C232.163 94.5787 231.609 94.5438 231.105 94.6956C230.612 94.8277 230.203 95.1791 229.877 95.75ZM227.045 109.215C227.689 109.459 228.283 109.492 228.83 109.312C229.395 109.144 229.836 108.784 230.15 108.233C230.442 107.721 230.512 107.21 230.359 106.701C230.237 106.184 229.93 105.624 229.439 105.022L227.045 109.215Z" fill="#3CED98"/>
<path d="M178.162 92.774C178.162 94.0206 177.833 95.1766 177.176 96.242C176.541 97.2846 175.589 98.146 174.32 98.826C173.073 99.4833 171.589 99.846 169.866 99.914V102.668H167.69V99.88C165.287 99.676 163.349 98.962 161.876 97.738C160.403 96.4913 159.621 94.8026 159.53 92.672H165.718C165.854 94.032 166.511 94.9046 167.69 95.29V89.918C165.922 89.4646 164.505 89.0226 163.44 88.592C162.397 88.1613 161.479 87.47 160.686 86.518C159.893 85.566 159.496 84.2626 159.496 82.608C159.496 80.5453 160.255 78.8906 161.774 77.644C163.315 76.3973 165.287 75.6946 167.69 75.536V72.782H169.866V75.536C172.246 75.7173 174.127 76.4086 175.51 77.61C176.893 78.8113 177.663 80.4773 177.822 82.608H171.6C171.464 81.384 170.886 80.5906 169.866 80.228V85.498C171.747 86.0193 173.198 86.484 174.218 86.892C175.238 87.3 176.145 87.98 176.938 88.932C177.754 89.8613 178.162 91.142 178.162 92.774ZM165.65 82.336C165.65 82.9026 165.82 83.3786 166.16 83.764C166.523 84.1493 167.033 84.4893 167.69 84.784V80.058C167.055 80.1713 166.557 80.4206 166.194 80.806C165.831 81.1686 165.65 81.6786 165.65 82.336ZM169.866 95.392C170.546 95.2786 171.079 95.0066 171.464 94.576C171.872 94.1453 172.076 93.6126 172.076 92.978C172.076 92.3886 171.883 91.9126 171.498 91.55C171.135 91.1646 170.591 90.836 169.866 90.564V95.392Z" fill="#3CED98"/>
<path d="M115.312 99.0835C116.189 99.97 116.771 101.026 117.057 102.251C117.344 103.444 117.281 104.733 116.866 106.119C116.452 107.473 115.663 108.787 114.5 110.06L116.436 112.019L114.906 113.566L112.946 111.584C111.113 113.147 109.249 114.018 107.352 114.195C105.44 114.356 103.703 113.711 102.141 112.261L106.492 107.86C107.543 108.731 108.619 108.884 109.719 108.32L105.942 104.499C104.38 105.434 103.073 106.127 102.022 106.579C100.986 107.014 99.8542 107.175 98.6271 107.062C97.4001 106.949 96.2048 106.305 95.0415 105.128C93.5913 103.661 92.9618 101.945 93.153 99.9781C93.3602 97.9955 94.2526 96.0935 95.8303 94.2721L93.8941 92.3136L95.424 90.7662L97.3602 92.7247C99.161 91.1612 100.97 90.3149 102.787 90.186C104.603 90.057 106.316 90.6937 107.926 92.096L103.551 96.5206C102.595 95.7469 101.631 95.5938 100.659 96.0612L104.364 99.8088C106.053 98.8417 107.4 98.1406 108.404 97.7054C109.408 97.2701 110.524 97.109 111.751 97.2218C112.978 97.3024 114.165 97.923 115.312 99.0835ZM99.1769 100.558C99.5754 100.961 100.03 101.179 100.539 101.211C101.065 101.227 101.663 101.106 102.332 100.849L99.0096 97.4878C98.6431 98.0197 98.4678 98.5516 98.4837 99.0835C98.4837 99.5993 98.7148 100.091 99.1769 100.558ZM111.32 106.845C111.719 106.281 111.902 105.708 111.87 105.128C111.854 104.532 111.623 104.008 111.177 103.556C110.763 103.137 110.292 102.936 109.767 102.952C109.241 102.936 108.627 103.089 107.926 103.411L111.32 106.845Z" fill="#3CED98"/>
</svg>
