<svg width="359" height="275" viewBox="0 0 359 275" fill="none" xmlns="http://www.w3.org/2000/svg">
<path d="M0 0H359V239H0V0Z" fill="#E7F2FF"/>
<path d="M188.215 102.842L112.654 143.64H109.124L110.477 209.066L186.214 163.103L188.215 102.842Z" fill="#25253E" stroke="black" stroke-width="0.260813"/>
<path d="M113.302 211.108V198.908L183.86 159.698L194.335 165.827L113.302 211.108Z" fill="#E2EDFA"/>
<path d="M183.86 159.755L194.276 165.826V102.104L183.86 106.643V159.755Z" fill="#6195D1"/>
<path d="M199.16 162.989L108.417 213.037L108.476 219.392L199.16 169.231V162.989Z" fill="#B6D7FF"/>
<path d="M113.302 216.725V142.788L108.182 145.739L108.359 219.449L113.302 216.725Z" fill="#B6D7FF"/>
<path d="M185.213 87.7471L95 138.703L108.476 146.306L199.219 96.2019L185.213 87.7471Z" fill="#E2EDFA"/>
<path d="M199.161 169.231L199.219 96.1455L194.041 99.0394L194.276 171.614L199.161 169.231Z" fill="#B6D7FF"/>
<path d="M198.807 96.4287L108.476 146.306V151.924L198.807 102.16V96.4287Z" fill="#B6D7FF"/>
<path d="M167.971 99.7753L178.74 93.874L197.453 104.372L186.802 110.273L167.971 99.7753Z" fill="#3F4F7B"/>
<path d="M197.453 104.371L186.802 110.272V112.202L197.453 106.017V104.371Z" fill="#27324F"/>
<path d="M186.802 110.274L167.971 99.7764V101.592L186.802 112.203V110.274Z" fill="#1B1725"/>
<path d="M178.858 94.8398L170.148 99.7198L174.621 102.217L183.271 97.2798L178.858 94.8398Z" fill="white"/>
<path d="M107.358 135.41L118.127 129.509L136.84 140.006L126.189 145.908L107.358 135.41Z" fill="#3F4F7B"/>
<path d="M136.84 140.006L126.189 145.907V147.836L136.84 141.651V140.006Z" fill="#27324F"/>
<path d="M126.189 145.908L107.358 135.41V137.226L126.189 147.837V145.908Z" fill="#1B1725"/>
<path d="M118.244 130.474L109.535 135.354L114.007 137.85L122.658 132.914L118.244 130.474Z" fill="white"/>
<path d="M199.16 169.23L108.182 219.448L173.503 255.481L263.363 204.809L199.16 169.23Z" fill="#E2EDFA"/>
<path d="M198.925 180.579V175.699L249.769 204.298L245.355 206.738L198.925 180.579Z" fill="#6195D1"/>
<path d="M198.925 175.699L119.127 220.356L122.894 223.023L198.925 180.579V175.699Z" fill="#B6D7FF"/>
<path d="M198.925 180.579L121.717 223.704L169.56 250.771L245.355 206.738L198.925 180.579Z" fill="#6DECAF"/>
<path d="M116.009 222.57L121.364 217.123L180.329 250.091L173.267 254.404L116.009 222.57Z" fill="#E2EDFA"/>
<path d="M137.252 221.593L172.323 241.183C174.87 239.705 177.562 240.503 178.589 241.086L191.981 233.746C189.636 232.268 191.004 230.764 191.981 230.197L157.011 210.655C153.979 211.939 151.503 211.19 150.644 210.655L137.455 218.044C139.759 219.678 138.28 221.091 137.252 221.593Z" fill="white"/>
<ellipse cx="151.988" cy="218.442" rx="3.55462" ry="1.99939" fill="#6DECAF"/>
<path d="M154.079 214.4L153.141 214.972L158.127 217.685L158.967 217.161L154.079 214.4Z" fill="#6DECAF"/>
<path d="M145.723 219.052L144.785 219.623L149.771 222.336L150.61 221.813L145.723 219.052Z" fill="#6DECAF"/>
<ellipse cx="179.058" cy="233.308" rx="3.55462" ry="1.99939" fill="#6DECAF"/>
<path d="M172.675 234.032L171.737 234.603L176.724 237.317L177.563 236.793L172.675 234.032Z" fill="#6DECAF"/>
<path d="M181.032 229.38L180.094 229.951L185.08 232.665L185.919 232.141L181.032 229.38Z" fill="#6DECAF"/>
<ellipse cx="164.195" cy="225.891" rx="9.2815" ry="5.47452" fill="#6DECAF"/>
<path d="M159.261 209.224L194.332 228.814C196.879 227.336 199.57 228.134 200.598 228.717L213.989 221.377C211.645 219.899 213.012 218.395 213.989 217.828L179.02 198.286C175.988 199.569 173.512 198.821 172.653 198.286L159.463 205.675C161.768 207.308 160.289 208.721 159.261 209.224Z" fill="white"/>
<ellipse cx="173.997" cy="206.074" rx="3.55462" ry="1.99939" fill="#6DECAF"/>
<path d="M176.088 202.031L175.15 202.603L180.136 205.316L180.976 204.792L176.088 202.031Z" fill="#6DECAF"/>
<path d="M167.732 206.684L166.794 207.255L171.78 209.968L172.62 209.445L167.732 206.684Z" fill="#6DECAF"/>
<ellipse cx="201.067" cy="220.941" rx="3.55462" ry="1.99939" fill="#6DECAF"/>
<path d="M194.684 221.664L193.746 222.235L198.732 224.949L199.571 224.425L194.684 221.664Z" fill="#6DECAF"/>
<path d="M203.04 217.012L202.102 217.583L207.089 220.296L207.928 219.773L203.04 217.012Z" fill="#6DECAF"/>
<ellipse cx="186.204" cy="213.522" rx="9.2815" ry="5.47452" fill="#6DECAF"/>
<path d="M181.741 197.081L216.812 216.672C219.359 215.194 222.051 215.991 223.078 216.574L236.47 209.234C234.125 207.756 235.493 206.253 236.47 205.685L201.5 186.144C198.468 187.427 195.992 186.678 195.133 186.144L181.944 193.533C184.248 195.166 182.769 196.579 181.741 197.081Z" fill="white"/>
<ellipse cx="196.477" cy="193.932" rx="3.55462" ry="1.99939" fill="#6DECAF"/>
<path d="M198.568 189.89L197.63 190.461L202.617 193.174L203.456 192.651L198.568 189.89Z" fill="#6DECAF"/>
<path d="M190.212 194.543L189.274 195.114L194.26 197.828L195.1 197.304L190.212 194.543Z" fill="#6DECAF"/>
<ellipse cx="223.547" cy="208.798" rx="3.55462" ry="1.99939" fill="#6DECAF"/>
<path d="M217.164 209.523L216.226 210.095L221.212 212.808L222.051 212.285L217.164 209.523Z" fill="#6DECAF"/>
<path d="M225.52 204.87L224.582 205.441L229.569 208.155L230.408 207.631L225.52 204.87Z" fill="#6DECAF"/>
<ellipse cx="208.683" cy="201.379" rx="9.2815" ry="5.47452" fill="#6DECAF"/>
<path d="M108.417 219.392L173.503 255.449V275L108.417 238.999V219.392Z" fill="#3994FF"/>
<path d="M95 138.702L108.476 146.306V219.618L95 211.618V138.702Z" fill="#3994FF"/>
<path d="M263.304 204.865L173.502 255.48V275L263.304 224.498V204.865Z" fill="#B6D7FF"/>
<path d="M191.916 250.455L177.875 258.089V269.56L191.916 261.853V250.455Z" fill="#27324F"/>
<path d="M176.563 257.287C176.997 257.537 176.604 257.308 177.875 258.042V269.56L176.563 268.742V257.287Z" fill="#1B1725"/>
<path d="M190.549 249.695L176.563 257.294L177.875 258.109L191.981 250.454L190.549 249.695Z" fill="#3F4F7B"/>
<path d="M182.402 258.465L179.449 260.046V266.373L182.402 264.854V258.465Z" fill="#E2EDFA"/>
<path d="M186.535 256.188L183.583 257.769V264.095L186.535 262.577V256.188Z" fill="#E2EDFA"/>
<path d="M190.472 254.036L187.52 255.618V261.944L190.472 260.426V254.036Z" fill="#E2EDFA"/>
<path d="M212.45 238.433L206.828 241.445V249.679L212.45 246.593V238.433Z" fill="#232E4B"/>
<path d="M205.987 240.883C206.297 241.062 206.016 240.898 206.926 241.424L206.828 249.67L205.987 249.084V240.883Z" fill="#1B1725"/>
<path d="M211.472 237.89L205.987 240.884L206.893 241.445L212.498 238.433L211.472 237.89Z" fill="#3F4F7B"/>
<path d="M235.518 225.837L229.896 228.849V237.084L235.518 233.998V225.837Z" fill="#232E4B"/>
<path d="M229.055 228.287C229.365 228.466 229.084 228.302 229.994 228.828L229.896 237.075L229.055 236.489V228.287Z" fill="#1B1725"/>
<path d="M234.54 225.294L229.055 228.288L229.96 228.85L235.565 225.838L234.54 225.294Z" fill="#3F4F7B"/>
<path d="M260.767 211.674L246.726 219.272V230.744L260.767 223.036V211.674Z" fill="#27324F"/>
<path d="M245.414 218.471C245.848 218.721 245.455 218.492 246.726 219.226V230.744L245.414 229.926V218.471Z" fill="#1B1725"/>
<path d="M259.4 210.914L245.414 218.477L246.726 219.293L260.832 211.673L259.4 210.914Z" fill="#3F4F7B"/>
<path d="M251.253 219.647L248.3 221.229V227.555L251.253 226.037V219.647Z" fill="#E2EDFA"/>
<path d="M255.387 217.371L252.434 218.953V225.279L255.387 223.761V217.371Z" fill="#E2EDFA"/>
<path d="M259.323 215.219L256.371 216.8V223.127L259.323 221.608V215.219Z" fill="#E2EDFA"/>
<path d="M231.545 229.12C233.56 229.618 235.317 234.949 231.545 234.121V229.12Z" fill="#E2EDFA"/>
<path d="M232.682 228.472C235.988 231.461 234.955 234.002 232.992 234.051C234.438 232.407 232.992 229.618 231.545 229.119L232.682 228.472Z" fill="white"/>
<path d="M212.748 248.017V244.072L212.456 243.32L215.086 242.362L215.368 250.46C212.493 250.084 212.748 248.975 212.748 248.017Z" fill="#3F4F7B"/>
<path d="M209.845 242.14L212.642 240.618C212.949 240.495 213.245 240.399 214.346 240.957L215.105 241.342C215.205 241.37 215.295 241.416 215.378 241.481L215.105 241.342C214.4 241.146 213.23 241.861 210.797 243.245L209.845 242.14Z" fill="#3F4F7B"/>
<path d="M224.536 242.259L215.583 247.209L215.037 248.909L217.307 249.285L226.211 244.119L228.735 240.164L228.511 234.988L229.738 233.861L233.05 230.902L231.531 230.094C224.955 232.17 225.637 235.777 225.832 237.054L226.211 240.641C225.832 241.725 225.169 241.964 224.536 242.259Z" fill="#3F4F7B"/>
<path d="M213.781 241.517L210.702 243.245C211.084 243.854 211.218 244.855 211.257 245.152C213.459 243.489 214.2 243.546 214.19 244.025C214.203 245.008 214.221 247.358 214.19 248.891C214.159 250.424 215.346 250.532 215.943 250.394C218.801 248.838 225.126 245.385 227.566 244.025C230.615 242.325 229.533 238.313 229.309 236.031C229.13 234.205 231.703 233.222 233.011 232.959V230.864C230.871 231.403 226.776 232.959 227.566 237.027C228.268 240.646 227.819 241.517 226.776 242.484L218.233 247.209C215.739 248.628 215.917 248.074 215.943 247.491C215.982 247.012 215.943 245.494 215.943 243.245C215.943 240.944 214.463 241.157 213.781 241.517Z" fill="#27324F"/>
<path d="M208.694 242.12C210.545 242.578 212.16 247.476 208.694 246.715V242.12Z" fill="#E2EDFA"/>
<path d="M209.738 241.525C212.777 244.272 211.827 246.607 210.023 246.653C211.353 245.142 210.023 242.578 208.694 242.121L209.738 241.525Z" fill="white"/>
<path d="M232 0L125.5 219.848L176 246.847L249.5 204.902L354 0H232Z" fill="#3CED98" fill-opacity="0.2"/>
<path d="M269.22 0L160 239.629L174.463 246.847L247.775 204.984L354.5 0H269.22Z" fill="#3CED98" fill-opacity="0.2"/>
<path d="M310 0L196.058 237.545L248.704 207.056L354 0H310Z" fill="#3CED98" fill-opacity="0.2"/>
<path d="M113 173.565C118.333 172.44 127 166.815 127 155.244C127 166.815 131 171.636 140 173.565C130.459 173.565 127.29 177.866 127.019 187.976C127.039 188.516 127.03 189.02 127 189.475C127 188.962 127.006 188.462 127.019 187.976C126.827 182.59 123.905 173.565 113 173.565Z" fill="#FFBC00"/>
<path d="M182 128.408C184.893 127.806 189.593 124.795 189.593 118.603C189.593 124.795 193.119 127.376 198 128.408C192.79 128.408 189.832 130.742 189.607 136.233C189.613 136.48 189.608 136.712 189.593 136.923C189.593 136.688 189.598 136.458 189.607 136.233C189.54 133.365 187.992 128.408 182 128.408Z" fill="#FFBC00"/>
<path d="M230 173.035C234.158 172.179 240.915 167.901 240.915 159.101C240.915 167.901 245.983 171.568 253 173.035C245.51 173.035 241.258 176.351 240.935 184.154C240.943 184.505 240.936 184.835 240.915 185.135C240.915 184.801 240.922 184.474 240.935 184.154C240.839 180.079 238.613 173.035 230 173.035Z" fill="#FFBC00"/>
</svg>
