<svg width="790" height="528" viewBox="0 0 790 528" fill="none" xmlns="http://www.w3.org/2000/svg">
<path opacity="0.3" d="M105 100L274 100" stroke="#84BCFF" stroke-width="7" stroke-linecap="round"/>
<path opacity="0.3" d="M106 122L176 122" stroke="#84BCFF" stroke-width="7" stroke-linecap="round"/>
<circle opacity="0.1" cx="120" cy="120" r="120" fill="#5FA8FF"/>
<rect x="489.976" y="153.439" width="142.72" height="20.2439" fill="#EBF4FF"/>
<rect x="650.915" y="153.439" width="98.1829" height="20.2439" fill="#D1E6FF"/>
<rect x="489.976" y="186.841" width="259.122" height="71.8659" fill="#D1E6FF"/>
<rect x="489.976" y="117" width="259.122" height="19.2317" fill="#EBF4FF"/>
<path opacity="0.3" d="M367.073 167.52V124.085L441.976 163.809L441.757 205.061L367.073 167.52Z" fill="#75E2FF"/>
<path opacity="0.3" d="M441.976 208.081V163.561L367.073 204.054V246.561L441.976 208.081Z" fill="#84BEFF"/>
<path opacity="0.3" d="M352.902 124.085L278 164.219L316.879 185.829L352.902 166.645V124.085Z" fill="#84BEFF"/>
<path opacity="0.3" d="M278 208.081V163.561L352.902 204.054V246.561L278 208.081Z" fill="#75E2FF"/>
<rect x="318.509" y="370.051" width="47.554" height="19" transform="rotate(45 318.509 370.051)" fill="#B4D6FF"/>
<rect x="296.166" y="354.753" width="28.6068" height="20.0486" transform="rotate(45 296.166 354.753)" fill="#B4D6FF"/>
<path d="M320.036 311.959C317.394 300.778 312.946 299.788 310.309 300.974C309.61 301.289 309.305 302.104 309.349 302.869C311.441 338.845 300.861 323.538 295.667 341.009C290.415 358.681 311.597 372.56 314.439 375.405C317.281 378.25 329.25 375.922 332.005 372.56C334.761 369.198 348.452 356.785 357.665 347.044C364.425 339.897 363.807 339.725 360.449 337.311C364.41 335.845 394.348 321.01 381.518 319.89C368.687 318.769 346.299 336.699 330.886 333.079C315.472 329.458 323.825 327.993 320.036 311.959Z" fill="#FCBB89"/>
<path d="M349.576 332.859C349.369 353.4 355.446 360.922 358.72 360.089C379.37 349.945 389.184 348.398 397.495 345.903C411.453 341.714 414.713 340.902 413.11 345.43C411.26 350.654 406.377 355.465 394.336 359.153C392.221 359.801 391.753 360.93 391.803 363.142C391.816 363.734 391.453 364.539 390.255 365.776C379.374 377.007 372.247 393.692 344.406 399.461L326.398 378.955C322.144 374.588 321.973 370.208 323.18 366.651C324.337 363.241 327.559 361.117 330.076 358.541C338.821 349.586 338.665 333.74 337.617 324.929C337.51 324.029 337.89 323.108 338.724 322.752C344.757 320.175 349.62 328.433 349.576 332.859Z" fill="#FFCCA5"/>
<path d="M365.354 383.61C370.983 381.026 392.796 367.126 391.934 363.766" stroke="#FFA158" stroke-width="2.68943" stroke-linecap="round"/>
<path d="M365.354 372.151C371.471 366.292 404.212 355.091 408.348 351.3" stroke="#FFA158" stroke-width="2.68943" stroke-linecap="round"/>
<path d="M338.127 330.708C340.281 335.446 336.887 353.937 327.443 362.415" stroke="#FFA158" stroke-width="2.68943" stroke-linecap="round"/>
<path d="M430.685 292.724L564.476 317.352L550.385 393.904C549.581 398.274 545.387 401.163 541.018 400.359L423.048 378.644C418.679 377.84 415.789 373.646 416.593 369.276L430.685 292.724Z" fill="#EBF5FF"/>
<g filter="url(#filter0_f_1308_1131)">
<path d="M430.685 292.724L564.476 317.352L550.385 393.904C549.581 398.274 545.387 401.163 541.018 400.359L423.048 378.644C418.679 377.84 415.789 373.646 416.593 369.276L430.685 292.724Z" fill="#EBF5FF"/>
</g>
<path d="M433.083 279.694C433.556 277.124 436.023 275.424 438.593 275.897L563.078 298.811C565.648 299.284 567.348 301.751 566.875 304.322L564.476 317.352L430.684 292.724L433.083 279.694Z" fill="#B5D8FF"/>
<g filter="url(#filter1_f_1308_1131)">
<path d="M433.083 279.694C433.556 277.124 436.023 275.424 438.593 275.897L563.078 298.811C565.648 299.284 567.348 301.751 566.875 304.322L564.476 317.352L430.684 292.724L433.083 279.694Z" fill="#B5D8FF"/>
</g>
<g filter="url(#filter2_i_1308_1131)">
<path d="M495.419 330.6L475.076 362.699" stroke="#5FA8FF" stroke-width="4.96841" stroke-linecap="round"/>
</g>
<g filter="url(#filter3_i_1308_1131)">
<path d="M500.632 342.118L512.178 354.78C512.504 355.138 512.384 355.711 511.941 355.907L496.863 362.594" stroke="#5FA8FF" stroke-width="6.18063" stroke-linecap="round"/>
</g>
<g filter="url(#filter4_i_1308_1131)">
<path d="M472.231 333.223L456.809 340.709C456.217 340.997 456.092 341.786 456.566 342.242L468.462 353.699" stroke="#5FA8FF" stroke-width="6.18063" stroke-linecap="round"/>
</g>
<g filter="url(#filter5_i_1308_1131)">
<circle cx="440.454" cy="285.381" r="2.36591" transform="rotate(10.43 440.454 285.381)" fill="#0075FF"/>
</g>
<g filter="url(#filter6_i_1308_1131)">
<ellipse cx="448.947" cy="286.945" rx="2.24761" ry="2.36591" transform="rotate(10.43 448.947 286.945)" fill="#72B3FF"/>
</g>
<g filter="url(#filter7_i_1308_1131)">
<circle cx="457.44" cy="288.508" r="2.36591" transform="rotate(10.43 457.44 288.508)" fill="white"/>
</g>
<path d="M480.803 365.382C486.573 373.974 480.028 375.721 476.475 375.56C475.593 375.56 471.714 375.16 463.251 373.557C452.672 371.553 438.406 359.532 436.884 364.42C435.665 368.331 444.417 373.45 449.066 375.56C456.679 390.708 471.987 398.482 483.688 399.123C493.049 399.636 516.654 420.388 527.286 430.7L536.102 391.189C534.446 390.307 528.601 388.159 518.47 386.62C505.808 384.697 496.751 375.08 494.588 371.072C493.031 368.191 488.811 362.178 486.014 358.741C485.476 358.08 484.557 357.833 483.809 357.424C481.723 356.284 479.749 352.183 478.158 351.918C476.235 351.597 473.59 354.643 480.803 365.382Z" fill="#FFC9A3"/>
<path d="M450.107 377.003C454.221 380.155 462.802 388.736 467.739 386.62" stroke="#E59674" stroke-width="2.24404" stroke-linecap="round"/>
<path d="M458.683 388.223C459.671 389.212 465.303 394.651 469.983 394.715" stroke="#E59674" stroke-width="2.24404" stroke-linecap="round"/>
<path d="M523 494L542 420" stroke="#5FA8FF" stroke-width="3" stroke-linecap="round"/>
<path d="M555.497 371.932L612.88 392.93" stroke="#5FA8FF" stroke-width="2.88519" stroke-linecap="round"/>
<path d="M608.633 391.086H624.822" stroke="#5FA8FF" stroke-width="2.88519" stroke-linecap="round"/>
<path d="M515.905 492.79C547.242 508.445 618.105 521.306 650.868 447.509" stroke="#292D7A" stroke-width="2.88519" stroke-linecap="round"/>
<path d="M656.959 454.961L663.371 463.216C654.715 480.608 637.645 516.544 638.606 521.16" stroke="#292D7A" stroke-width="2.88519" stroke-linecap="round"/>
<path d="M661.527 451.755C671.091 452.744 691.165 454.625 694.947 454.24" stroke="#5FA8FF" stroke-width="2.88519" stroke-linecap="round"/>
<path d="M596.771 430.758L585.07 447.027" stroke="#5FA8FF" stroke-width="2.88519" stroke-linecap="round"/>
<path d="M606.388 422.423L619.451 454.481" stroke="#5FA8FF" stroke-width="2.88519" stroke-linecap="round"/>
<path d="M639.649 520.279C637.982 513.547 643.976 492.095 647.182 482.211H747.442C751.482 482.211 757.567 507.59 760.105 520.279H639.649Z" fill="#84B5EB" fill-opacity="0.36"/>
<path d="M750.888 365.601C757.701 384.195 766.388 434.076 746.641 484.856L760.986 521.161" stroke="#292D7A" stroke-width="2.88519" stroke-linecap="round"/>
<path d="M714.663 374.657C711.759 395.633 694.936 439.585 650.868 447.588" stroke="#292D7A" stroke-width="2.88519" stroke-linecap="round"/>
<path d="M654.555 351.015L605.347 418.977L529.13 389.804L509.094 483.172" stroke="#292D7A" stroke-width="2.88519" stroke-linecap="round"/>
<circle cx="653" cy="42" r="8" fill="#5FA8FF"/>
<circle cx="689" cy="42" r="8" fill="#5FA8FF"/>
<circle cx="725" cy="42" r="8" fill="#5FA8FF"/>
<circle cx="761" cy="42" r="8" fill="#5FA8FF"/>
<circle cx="653" cy="73" r="8" fill="#5FA8FF"/>
<circle cx="689" cy="73" r="8" fill="#5FA8FF"/>
<circle cx="725" cy="73" r="8" fill="#5FA8FF"/>
<circle cx="761" cy="73" r="8" fill="#5FA8FF"/>
<circle cx="653" cy="104" r="8" fill="#5FA8FF"/>
<circle cx="689" cy="104" r="8" fill="#5FA8FF"/>
<circle cx="725" cy="104" r="8" fill="#5FA8FF"/>
<circle cx="761" cy="104" r="8" fill="#5FA8FF"/>
<circle cx="653" cy="135" r="8" fill="#5FA8FF"/>
<circle cx="689" cy="135" r="8" fill="#5FA8FF"/>
<circle cx="725" cy="135" r="8" fill="#5FA8FF"/>
<circle cx="761" cy="135" r="8" fill="#5FA8FF"/>
<path d="M640.109 246.816C641.388 229.274 653.721 222.755 662.144 218.334C662.527 218.133 662.954 218.527 662.825 218.94C652.974 250.606 676.368 255.766 686.39 257.093L676.55 293.475L753.913 370.673L754.518 382.546C775.544 373.634 767.869 347.783 763.894 335.995C770.21 333.232 776.23 328.1 778.451 325.879C805.509 295.037 778.451 262.774 763.894 259.507C751.063 256.629 743.689 250.433 743.086 247.253C740.755 235.19 732.97 208.631 720.468 198.893C707.967 189.155 685.98 196.207 676.55 200.949C676.303 200.401 673.737 198.712 665.447 196.344C657.058 194.918 638.586 195.867 631.809 211.065C625.667 224.84 633.155 240.328 638.45 247.376C638.975 248.076 640.045 247.689 640.109 246.816Z" fill="#584232"/>
<path d="M659.277 204.144C652.479 201.567 637.417 199.587 631.561 212.286C624.241 228.159 633.672 242.043 638.442 245.662" stroke="#372A21" stroke-width="2.08375" stroke-linecap="round"/>
<path d="M678.68 222.962C675.336 229.683 673.539 250.048 685.569 255.86" stroke="#372A21" stroke-width="1.60288" stroke-linecap="round"/>
<path d="M669.988 225.923C667.645 233.052 669.357 251.651 683.76 254.709" stroke="#372A21" stroke-width="1.60288" stroke-linecap="round"/>
<path d="M772.09 283.988C778.122 294.104 787.569 317.544 777.107 330.374C766.646 343.204 758.218 346.247 755.312 346.165" stroke="#372A21" stroke-width="1.92346" stroke-linecap="round"/>
<path d="M712.791 258.081C732.53 262.933 743.469 266.387 744.456 284.317C746.291 317.668 695.027 295.008 712.791 291.143C731.678 287.033 741.001 308.168 734.175 329.798" stroke="#372A21" stroke-width="2.7249" stroke-linecap="round"/>
<path d="M665.291 216.489C644.583 225.216 639.93 238.61 638.845 248.926C637.395 249.651 636.022 250.52 634.746 251.519L624.131 259.83C622.014 261.154 621.874 264.164 623.955 265.545C626.573 267.282 629.139 268.773 630.743 269.57C631.584 269.989 632.322 270.953 632.341 271.892C632.803 295.346 631.861 297.006 636.12 301.267C640.48 305.628 659.553 297.995 665.548 296.905C672.819 295.582 675.862 303.993 675.862 315.987C675.862 325.583 664.524 340.421 657.439 347.327L751.528 366.161C751.528 348.169 741.146 330.38 728.417 324.205C720.11 320.175 703.085 319.188 695.108 303.315C691.365 295.868 690.571 286.281 691.787 278.204C692.035 276.556 693.055 275.155 694.396 274.165C700.794 269.446 703.12 264.585 703.615 260.576C704.098 256.669 702.232 252.705 699.1 250.319C692.053 244.951 687.1 253.831 686.088 255.868C685.968 256.109 685.733 256.26 685.466 256.225C682.199 255.802 661.519 251.732 665.515 216.662C665.529 216.54 665.404 216.442 665.291 216.489Z" fill="#FFC9A3"/>
<path d="M696.342 258.162C694.56 258.436 691.177 260.087 691.901 264.495C692.625 268.903 689.845 270.279 688.364 270.417" stroke="#E69674" stroke-width="1.76317" stroke-linecap="round"/>
<path d="M665.006 339.337L671.914 328.728L678.165 317.296" stroke="#E69674" stroke-width="2.7249" stroke-linecap="round"/>
<path d="M677.343 288.51C678.056 287.77 681.537 284.645 681.866 283" stroke="#E69674" stroke-width="1.28231" stroke-linecap="round"/>
<path d="M636.221 282.589C638.825 282.122 643.639 280.384 646.008 276.502" stroke="#EB775E" stroke-width="1.76317" stroke-linecap="round"/>
<path d="M649.917 233.948C649.198 236.533 657.391 237.126 662.103 237.107C662.267 237.107 662.32 236.893 662.176 236.815C658.077 234.623 650.637 231.364 649.917 233.948Z" fill="#372A21" stroke="#372A21" stroke-width="1.92346" stroke-linecap="round"/>
<path d="M648.888 244.838C648.888 241.433 656.196 240.352 659.251 245.139" stroke="#B66030" stroke-width="1.44259" stroke-linecap="round"/>
<ellipse cx="650.417" cy="245.464" rx="2.51658" ry="3.32189" fill="#B66030"/>
<ellipse cx="659.168" cy="260.054" rx="13.5704" ry="8.4712" fill="#FF7575" fill-opacity="0.3"/>
<path d="M646.419 249.691C655.548 250.212 680.649 253.918 687.624 257.669" stroke="white" stroke-width="1.92346" stroke-linecap="round"/>
<path d="M646.46 246.396C645.719 250.08 644.559 253.283 643.304 255.48C642.674 256.582 642.044 257.391 641.465 257.886C640.876 258.389 640.453 258.479 640.177 258.423C639.901 258.368 639.546 258.122 639.197 257.431C638.854 256.75 638.585 255.76 638.431 254.5C638.122 251.989 638.289 248.587 639.03 244.903C639.77 241.219 640.931 238.017 642.186 235.819C642.815 234.717 643.446 233.908 644.025 233.413C644.613 232.91 645.036 232.82 645.312 232.876C645.588 232.931 645.944 233.178 646.292 233.869C646.635 234.549 646.904 235.539 647.059 236.799C647.367 239.31 647.2 242.713 646.46 246.396Z" stroke="white" stroke-width="1.60288"/>
<path d="M656.398 346.927L750.568 365.68" stroke="#292D7A" stroke-width="1.92346" stroke-linecap="round"/>
<path d="M717.229 365.696L718.183 362.619C718.867 360.407 719.216 358.105 719.216 355.79L719.216 352.537" stroke="#E69674" stroke-width="2.7249" stroke-linecap="round"/>
<path d="M208.534 140.488C212.937 144.285 223.927 149.885 232.66 141.912" stroke="#2A2A2A" stroke-width="2.21482" stroke-linecap="round"/>
<path d="M169.063 234.517C172.987 221.607 172.702 214.531 172.069 212.606C160.362 110.787 215.548 127.572 244.605 148.692C247.611 172.897 241.599 164.592 241.599 174.954C241.599 185.316 248.402 187.926 252.198 195.125C255.236 200.883 246.398 203.166 241.599 203.588C241.725 209.473 240.122 220.068 239.305 224.629C235.745 253.896 204.431 229.533 201.653 229.533C199.675 229.533 200.651 241.689 199.675 246.461L177.765 237.149H174.047L169.063 234.517Z" fill="#FFCCA5"/>
<path d="M186.775 200.377L170.955 215.169C169.294 218.702 161.747 215.929 144.851 176.568C127.955 137.208 160.276 122.885 178.548 120.644C188.167 103.495 209.503 109.121 218.969 114.078C243.395 94.9044 251.717 114.316 252.824 126.418C256.41 127.262 264.294 131.006 267.141 139.232C270.701 149.516 244.36 164.624 245.388 161.776C246.211 159.498 245.046 152.495 244.36 149.278C240.563 148.835 234.921 144.295 232.574 142.08C223.145 149.484 212.614 144.163 208.528 140.577C208.633 141.816 208.195 144.896 205.601 147.301C202.358 150.307 204.098 171.347 204.098 176.568C204.098 180.745 199.826 185.164 197.691 186.851C201.013 180.049 188.594 160.273 178.548 173.246C170.512 183.624 180.684 195.658 186.775 200.377Z" fill="#353535"/>
<path d="M202.365 162.083C199.412 163.875 190.484 166.923 178.397 164.772" stroke="#2A2A2A" stroke-width="2.21482" stroke-linecap="round"/>
<path d="M204.263 153.144C205.607 144.997 204.954 141.186 184.566 127.99" stroke="#2A2A2A" stroke-width="2.21482" stroke-linecap="round"/>
<path d="M219.608 123.165C220.584 119.737 221.206 111.632 215.891 106.633" stroke="#2A2A2A" stroke-width="2.21482" stroke-linecap="round"/>
<path d="M243.26 148.794C245.86 149.107 252.376 148.576 254.424 142.524" stroke="#2A2A2A" stroke-width="2.21482" stroke-linecap="round"/>
<path d="M245.317 111.854C252.278 113.041 258.578 134.68 242.153 133.053C236.933 132.536 234.393 126.24 236.933 122.612C240.107 118.076 243.34 130.601 232.582 141.912" stroke="#2A2A2A" stroke-width="2.21482" stroke-linecap="round"/>
<path d="M169.459 215.239L178.556 208.199L187.098 200.126C180.77 195.196 170.282 182.882 178.951 173.074C189.788 160.813 199.992 179.639 197.777 186.679C197.144 187.628 205.735 178.801 203.71 172.283C201.178 164.136 203.71 152.591 208.456 140.646M232.344 142.066C234.691 143.991 238.561 147.227 242.548 148.556C248.322 150.481 245.475 162.32 245.475 162.32" stroke="#2B2B2B" stroke-width="2.21482" stroke-linecap="round"/>
<path d="M160.95 206.159L160.018 206.756L161.213 208.621L162.145 208.023L160.95 206.159ZM172.526 192.821C172.421 192.218 171.848 191.815 171.245 191.92C170.643 192.025 170.239 192.599 170.345 193.202L172.526 192.821ZM162.145 208.023C163.693 207.032 166.568 205.147 168.907 202.611C171.232 200.091 173.208 196.727 172.526 192.821L170.345 193.202C170.85 196.098 169.424 198.785 167.279 201.11C165.15 203.419 162.488 205.173 160.95 206.159L162.145 208.023Z" fill="#2B2B2B"/>
<path d="M208.614 140.33C212.965 144.126 223.833 149.774 232.503 141.991" stroke="#2A2A2A" stroke-width="2.21482" stroke-linecap="round"/>
<path d="M183.303 180.672C183.303 175.53 190.232 176.47 190.105 184.443C189.868 186.605 190.105 190.945 192.953 191.009" stroke="#CA835D" stroke-width="1.58202" stroke-linecap="round"/>
<path d="M190.263 207.487C190.079 211.521 190.611 217.628 193.585 218.324" stroke="#CA835D" stroke-width="1.42381" stroke-linecap="round"/>
<path d="M223.82 207.062C226.287 209.766 234.818 216.144 237.169 214.685" stroke="#E07E5E" stroke-width="2.21482" stroke-linecap="round"/>
<path d="M220.796 175.592C224.174 174.142 234.924 171.909 231.033 180.197" stroke="#C15832" stroke-width="2.21482" stroke-linecap="round"/>
<ellipse cx="229.971" cy="178.773" rx="2.68943" ry="4.11324" fill="#C15832"/>
<path d="M216.304 160.752C220.586 164.759 230.144 171.096 238.62 166.288C247.096 161.48 211.71 157.273 216.304 160.752Z" fill="#2A2A2A" stroke="#2A2A2A" stroke-width="1.89842" stroke-linecap="round"/>
<path d="M217.202 282.553C224.391 267.572 219.074 257.12 212.426 251.159C208.41 247.558 201.07 246.487 196.386 243.813C191.798 241.194 186.334 237.827 182.431 237.94C176.835 238.102 174.053 237.272 172.806 232.656C171.962 229.535 170.319 226.515 167.307 225.338C142.24 215.546 137.898 240.615 136.474 254.53C149.272 253.972 195.625 272.979 217.202 282.553Z" fill="#83BDFF" fill-opacity="0.49"/>
<path d="M211.488 277.366L140.282 254.382C138.167 253.699 136 255.277 136 257.5L130.077 303.404C130.026 303.8 130.022 304.201 130.065 304.597L135.481 354.697C135.771 357.386 138.122 359.373 140.823 359.212L229.109 353.941C232.666 353.729 234.9 350.009 233.415 346.769L225.702 329.94C225.567 329.647 225.462 329.343 225.385 329.03L215.145 287.093C215.049 286.699 215 286.295 215 285.89V282.19C215 279.991 213.581 278.042 211.488 277.366Z" fill="white"/>
<path d="M214.468 287.299C218.238 295.314 225.463 314.193 224.197 325.584" stroke="#292D7A" stroke-width="3.95504" stroke-linecap="round"/>
<path d="M348.068 399.78C348.986 399.78 349.729 399.037 349.729 398.119C349.729 397.202 348.986 396.458 348.068 396.458V399.78ZM333.622 413.239C335.479 410.929 338.482 407.463 341.44 404.591C342.922 403.152 344.356 401.898 345.603 401.015C346.227 400.574 346.771 400.249 347.224 400.04C347.696 399.823 347.965 399.78 348.068 399.78V396.458C347.286 396.458 346.516 396.709 345.834 397.023C345.133 397.346 344.408 397.791 343.684 398.303C342.237 399.327 340.664 400.713 339.126 402.207C336.042 405.202 332.946 408.776 331.032 411.159L333.622 413.239Z" fill="#292D7A"/>
<path d="M339.751 389.564C340.399 388.916 340.399 387.864 339.751 387.215C339.102 386.566 338.05 386.566 337.401 387.215L339.751 389.564ZM323.693 405.622L339.751 389.564L337.401 387.215L321.344 403.273L323.693 405.622Z" fill="#292D7A"/>
<path d="M332.157 382.366C332.806 381.717 332.806 380.666 332.157 380.017C331.508 379.368 330.456 379.368 329.808 380.017L332.157 382.366ZM317.602 396.921L332.157 382.366L329.808 380.017L315.253 394.571L317.602 396.921Z" fill="#292D7A"/>
<path d="M323.732 373.768C323.957 372.879 323.419 371.975 322.53 371.75C321.641 371.525 320.737 372.063 320.512 372.952L323.732 373.768ZM308.279 389.911C310.545 388.333 314.009 385.672 317.075 382.787C318.607 381.344 320.068 379.819 321.236 378.324C322.38 376.858 323.347 375.29 323.732 373.768L320.512 372.952C320.296 373.804 319.667 374.935 318.617 376.28C317.59 377.595 316.259 378.992 314.798 380.367C311.875 383.118 308.544 385.678 306.381 387.185L308.279 389.911Z" fill="#292D7A"/>
<path d="M309.017 367.741C309.932 367.684 310.628 366.896 310.571 365.98C310.514 365.064 309.725 364.368 308.809 364.426L309.017 367.741ZM294.805 381.617C296.294 379.307 298.843 375.814 301.617 372.88C303.004 371.413 304.411 370.125 305.737 369.197C307.096 368.246 308.203 367.792 309.017 367.741L308.809 364.426C307.092 364.533 305.377 365.394 303.832 366.475C302.255 367.579 300.676 369.04 299.203 370.598C296.255 373.716 293.583 377.381 292.013 379.817L294.805 381.617Z" fill="#5FA8FF"/>
<path d="M297.618 355.763C297.248 354.923 296.267 354.543 295.428 354.913C294.589 355.284 294.208 356.264 294.579 357.104L297.618 355.763ZM285.795 372.365C288.131 370.789 291.527 368.143 294.122 365.296C295.416 363.878 296.58 362.334 297.292 360.786C297.996 359.254 298.367 357.459 297.618 355.763L294.579 357.104C294.779 357.559 294.788 358.277 294.273 359.399C293.764 360.505 292.853 361.758 291.667 363.058C289.306 365.648 286.137 368.127 283.937 369.61L285.795 372.365Z" fill="#5FA8FF"/>
<path d="M104.358 504.839C130.75 504.757 184.626 505.02 188.996 506.725" stroke="#292D7A" stroke-width="3.95504" stroke-linecap="round"/>
<path d="M155.933 231.058C169.881 234.829 198.141 243.429 199.596 247.669" stroke="#292D7A" stroke-width="3.95504" stroke-linecap="round"/>
<path d="M136.473 259.851C125.9 265.757 105.814 287.757 110.054 328.51C114.293 369.263 121.734 406.398 124.924 419.872" stroke="#292D7A" stroke-width="3.95504" stroke-linecap="round"/>
<path d="M238.751 434.585C259.238 418.844 301.588 387.282 307.094 386.966L336.124 417.024C336.756 425.62 331.836 447.889 307.094 468.202C297.522 503.007 262.971 562.174 201.336 520.409C194.876 516.111 181.956 502.342 181.956 481.65C167.349 474.267 138.593 449.993 140.428 411.962C142.722 364.422 124.766 313.165 132.597 301.142" stroke="#292D7A" stroke-width="3.95504" stroke-linecap="round"/>
<path d="M267.464 424.222C266.541 442.152 258.731 472.173 253.858 475.4" stroke="#5FA8FF" stroke-width="3.95504" stroke-linecap="round"/>
<path d="M169.617 226.945C175.945 239.522 169.696 234.301 160.204 232.324" stroke="#292D7A" stroke-width="2.84763" stroke-linecap="round"/>
<path d="M254.018 389.497L282.573 370.196L301.083 389.497" stroke="#5FA8FF" stroke-width="3.32223"/>
<path d="M212.014 299.955C228.704 334.575 262.164 406.093 262.48 415.205" stroke="#292D7A" stroke-width="3.95504" stroke-linecap="round"/>
<rect x="128.514" y="358.008" width="111.267" height="50.5754" transform="rotate(-15.6803 128.514 358.008)" fill="#84B5EB" fill-opacity="0.49"/>
<path d="M137.424 414.888H121.05L104.676 524.364H206.162C181.672 516.643 182.247 493.462 185.596 482.836C154.019 477.457 140.324 435.296 137.424 414.888Z" fill="#84B5EB" fill-opacity="0.49"/>
<defs>
<filter id="filter0_f_1308_1131" x="398.951" y="275.216" width="183.033" height="142.785" filterUnits="userSpaceOnUse" color-interpolation-filters="sRGB">
<feFlood flood-opacity="0" result="BackgroundImageFix"/>
<feBlend mode="normal" in="SourceGraphic" in2="BackgroundImageFix" result="shape"/>
<feGaussianBlur stdDeviation="8.75386" result="effect1_foregroundBlur_1308_1131"/>
</filter>
<filter id="filter1_f_1308_1131" x="425.006" y="270.14" width="147.626" height="52.8901" filterUnits="userSpaceOnUse" color-interpolation-filters="sRGB">
<feFlood flood-opacity="0" result="BackgroundImageFix"/>
<feBlend mode="normal" in="SourceGraphic" in2="BackgroundImageFix" result="shape"/>
<feGaussianBlur stdDeviation="2.83909" result="effect1_foregroundBlur_1308_1131"/>
</filter>
<filter id="filter2_i_1308_1131" x="472.592" y="328.115" width="25.3115" height="38.0152" filterUnits="userSpaceOnUse" color-interpolation-filters="sRGB">
<feFlood flood-opacity="0" result="BackgroundImageFix"/>
<feBlend mode="normal" in="SourceGraphic" in2="BackgroundImageFix" result="shape"/>
<feColorMatrix in="SourceAlpha" type="matrix" values="0 0 0 0 0 0 0 0 0 0 0 0 0 0 0 0 0 0 127 0" result="hardAlpha"/>
<feOffset dy="1.89273"/>
<feGaussianBlur stdDeviation="0.473182"/>
<feComposite in2="hardAlpha" operator="arithmetic" k2="-1" k3="1"/>
<feColorMatrix type="matrix" values="0 0 0 0 0.2 0 0 0 0 0.568 0 0 0 0 1 0 0 0 1 0"/>
<feBlend mode="normal" in2="shape" result="effect1_innerShadow_1308_1131"/>
</filter>
<filter id="filter3_i_1308_1131" x="493.771" y="339.028" width="21.6836" height="27.6036" filterUnits="userSpaceOnUse" color-interpolation-filters="sRGB">
<feFlood flood-opacity="0" result="BackgroundImageFix"/>
<feBlend mode="normal" in="SourceGraphic" in2="BackgroundImageFix" result="shape"/>
<feColorMatrix in="SourceAlpha" type="matrix" values="0 0 0 0 0 0 0 0 0 0 0 0 0 0 0 0 0 0 127 0" result="hardAlpha"/>
<feOffset dy="1.89273"/>
<feGaussianBlur stdDeviation="0.473182"/>
<feComposite in2="hardAlpha" operator="arithmetic" k2="-1" k3="1"/>
<feColorMatrix type="matrix" values="0 0 0 0 0.2 0 0 0 0 0.568 0 0 0 0 1 0 0 0 1 0"/>
<feBlend mode="normal" in2="shape" result="effect1_innerShadow_1308_1131"/>
</filter>
<filter id="filter4_i_1308_1131" x="453.185" y="330.132" width="22.1377" height="27.6036" filterUnits="userSpaceOnUse" color-interpolation-filters="sRGB">
<feFlood flood-opacity="0" result="BackgroundImageFix"/>
<feBlend mode="normal" in="SourceGraphic" in2="BackgroundImageFix" result="shape"/>
<feColorMatrix in="SourceAlpha" type="matrix" values="0 0 0 0 0 0 0 0 0 0 0 0 0 0 0 0 0 0 127 0" result="hardAlpha"/>
<feOffset dy="1.89273"/>
<feGaussianBlur stdDeviation="0.473182"/>
<feComposite in2="hardAlpha" operator="arithmetic" k2="-1" k3="1"/>
<feColorMatrix type="matrix" values="0 0 0 0 0.2 0 0 0 0 0.568 0 0 0 0 1 0 0 0 1 0"/>
<feBlend mode="normal" in2="shape" result="effect1_innerShadow_1308_1131"/>
</filter>
<filter id="filter5_i_1308_1131" x="438.088" y="283.015" width="4.73242" height="5.67927" filterUnits="userSpaceOnUse" color-interpolation-filters="sRGB">
<feFlood flood-opacity="0" result="BackgroundImageFix"/>
<feBlend mode="normal" in="SourceGraphic" in2="BackgroundImageFix" result="shape"/>
<feColorMatrix in="SourceAlpha" type="matrix" values="0 0 0 0 0 0 0 0 0 0 0 0 0 0 0 0 0 0 127 0" result="hardAlpha"/>
<feOffset dy="0.946364"/>
<feGaussianBlur stdDeviation="0.473182"/>
<feComposite in2="hardAlpha" operator="arithmetic" k2="-1" k3="1"/>
<feColorMatrix type="matrix" values="0 0 0 0 0 0 0 0 0 0.358417 0 0 0 0 0.779167 0 0 0 1 0"/>
<feBlend mode="normal" in2="shape" result="effect1_innerShadow_1308_1131"/>
</filter>
<filter id="filter6_i_1308_1131" x="446.695" y="284.582" width="4.50391" height="5.67146" filterUnits="userSpaceOnUse" color-interpolation-filters="sRGB">
<feFlood flood-opacity="0" result="BackgroundImageFix"/>
<feBlend mode="normal" in="SourceGraphic" in2="BackgroundImageFix" result="shape"/>
<feColorMatrix in="SourceAlpha" type="matrix" values="0 0 0 0 0 0 0 0 0 0 0 0 0 0 0 0 0 0 127 0" result="hardAlpha"/>
<feOffset dy="0.946364"/>
<feGaussianBlur stdDeviation="0.473182"/>
<feComposite in2="hardAlpha" operator="arithmetic" k2="-1" k3="1"/>
<feColorMatrix type="matrix" values="0 0 0 0 0 0 0 0 0 0.463087 0 0 0 0 1 0 0 0 0.35 0"/>
<feBlend mode="normal" in2="shape" result="effect1_innerShadow_1308_1131"/>
</filter>
<filter id="filter7_i_1308_1131" x="455.074" y="286.142" width="4.73242" height="5.67927" filterUnits="userSpaceOnUse" color-interpolation-filters="sRGB">
<feFlood flood-opacity="0" result="BackgroundImageFix"/>
<feBlend mode="normal" in="SourceGraphic" in2="BackgroundImageFix" result="shape"/>
<feColorMatrix in="SourceAlpha" type="matrix" values="0 0 0 0 0 0 0 0 0 0 0 0 0 0 0 0 0 0 127 0" result="hardAlpha"/>
<feOffset dy="0.946364"/>
<feGaussianBlur stdDeviation="0.473182"/>
<feComposite in2="hardAlpha" operator="arithmetic" k2="-1" k3="1"/>
<feColorMatrix type="matrix" values="0 0 0 0 0.6375 0 0 0 0 0.6375 0 0 0 0 0.6375 0 0 0 0.25 0"/>
<feBlend mode="normal" in2="shape" result="effect1_innerShadow_1308_1131"/>
</filter>
</defs>
</svg>
